<?xml version="1.0" encoding="utf-8"?>
<!-- Generator: Adobe Illustrator 26.5.0, SVG Export Plug-In . SVG Version: 6.00 Build 0)  -->
<svg version="1.1" id="Layer_2_00000049215871449212049890000009198586211091456678_"
	 xmlns="http://www.w3.org/2000/svg" xmlns:xlink="http://www.w3.org/1999/xlink" x="0px" y="0px" viewBox="0 0 180 27.6"
	 style="enable-background:new 0 0 180 27.6;" xml:space="preserve">
<style type="text/css">
	.st0{fill:#FFFFFF;}
	.st1{enable-background:new    ;}
</style>
<g id="Layer_1-2">
	<g>
		<g>
			<path class="st0" d="M21.8,6.2H0v3.1h1.3L0.9,20.1H0v1.5h21.8v-1.5h-1.2L20.2,9.3h1.6C21.8,9.3,21.8,6.2,21.8,6.2z M8.4,20.1H5.9
				L5.5,9.3h3.4L8.4,20.1z M15.9,20.1h-2.5L13,9.3h3.4C16.3,9.3,15.9,20.1,15.9,20.1z"/>
			<polygon class="st0" points="10.9,0 2.8,4.6 19,4.6 			"/>
		</g>
		<g class="st1">
			<path class="st0" d="M32.9,6.2h2.9l5.5,15.4h-3l-1-2.8h-6l-1,2.8h-3L32.9,6.2z M32.3,16.1h4.1l-2-5.9L32.3,16.1z"/>
		</g>
		<g class="st1">
			<path class="st0" d="M51.8,20c-0.9,1.2-2.4,1.9-4,1.9c-3,0-6.1-2.4-6.1-6.4c0-4.1,3-6.5,6.1-6.5c1.6,0,3.1,0.7,4,1.8V9.2h2.9
				v12.1c0,3.5-2.2,6.3-6.4,6.3c-3.2,0-5.2-1.5-6.3-3.6l2.5-1.5c0.9,1.7,1.9,2.5,3.9,2.5c2.2,0,3.5-1.7,3.5-3.6V20z M52,15.4
				c0-2.1-1.6-3.8-3.7-3.8c-2.1,0-3.7,1.7-3.7,3.8c0,2.2,1.6,3.9,3.7,3.9C50.4,19.3,52,17.5,52,15.4z"/>
			<path class="st0" d="M56.4,15.5c0-3.6,2.8-6.5,6.4-6.5c3.6,0,6.4,2.8,6.4,6.5c0,3.6-2.9,6.4-6.4,6.4C59.2,21.9,56.4,19,56.4,15.5
				z M66.4,15.5c0-2.1-1.6-3.8-3.6-3.8c-2.1,0-3.6,1.7-3.6,3.8c0,2.1,1.5,3.7,3.6,3.7C64.8,19.2,66.4,17.5,66.4,15.5z"/>
		</g>
		<g class="st1">
			<path class="st0" d="M70.9,9.2h2.8v1.8c0.6-1.2,1.6-1.8,3.2-1.8c0.9,0,1.6,0.2,2.2,0.5L78,12.5c-0.4-0.3-0.9-0.5-1.7-0.5
				c-1.7,0-2.5,0.9-2.5,3v6.6h-2.9V9.2z"/>
		</g>
		<g class="st1">
			<path class="st0" d="M79.6,15.5c0-4.1,3-6.5,6.1-6.5c1.6,0,3.1,0.7,4,1.7V9.2h2.9v12.4h-2.9V20c-0.9,1.2-2.4,1.9-4,1.9
				C82.7,21.9,79.6,19.5,79.6,15.5z M89.8,15.4c0-2.1-1.6-3.8-3.7-3.8c-2.1,0-3.7,1.7-3.7,3.8c0,2.2,1.6,3.9,3.7,3.9
				C88.3,19.3,89.8,17.5,89.8,15.4z"/>
		</g>
		<g class="st1">
			<path class="st0" d="M99.4,19.1l2.6-2.1c0.8,1.4,2,2.1,3.4,2.1c1.5,0,2.3-1,2.3-2.1c0-1.3-1.6-1.7-3.2-2.2
				c-2.1-0.7-4.4-1.5-4.4-4.4c0-2.5,2.2-4.4,5.1-4.4c2.5,0,3.9,1,5.2,2.2l-2.4,1.8c-0.7-1-1.6-1.5-2.8-1.5c-1.4,0-2.2,0.8-2.2,1.8
				c0,1.2,1.5,1.6,3.2,2.2c2.1,0.7,4.5,1.6,4.5,4.6c0,2.4-1.9,4.8-5.3,4.8C102.7,21.8,100.9,20.7,99.4,19.1z"/>
		</g>
		<g class="st1">
			<path class="st0" d="M111.3,9.2h2.1V7.4l2.9-2v3.9h2.5v2.6h-2.5v4.6c0,2.2,0.3,2.5,2.5,2.5v2.7h-0.4c-3.8,0-5-1.2-5-5.2v-4.7
				h-2.1V9.2z"/>
		</g>
		<g class="st1">
			<path class="st0" d="M119.7,15.5c0-4.1,3-6.5,6.1-6.5c1.6,0,3.1,0.7,4,1.7V9.2h2.9v12.4h-2.9V20c-0.9,1.2-2.4,1.9-4,1.9
				C122.8,21.9,119.7,19.5,119.7,15.5z M130,15.4c0-2.1-1.6-3.8-3.7-3.8c-2.1,0-3.7,1.7-3.7,3.8c0,2.2,1.6,3.9,3.7,3.9
				C128.4,19.3,130,17.5,130,15.4z"/>
		</g>
		<g class="st1">
			<path class="st0" d="M134.8,6h2.9v9.2l5.3-6h3.4l-4.8,5.4l5,7h-3.2l-3.7-5.3l-2,2.2v3.2h-2.9V6z"/>
		</g>
		<g class="st1">
			<path class="st0" d="M149.1,4.4c1.1,0,1.8,0.7,1.8,1.8S150.2,8,149.1,8c-1.2,0-1.8-0.7-1.8-1.8S148,4.4,149.1,4.4z M147.7,9.2
				h2.9v12.4h-2.9V9.2z"/>
			<path class="st0" d="M152.6,9.2h2.8v1.5c0.8-1.1,2.1-1.8,3.7-1.8c3.1,0,4.9,1.9,4.9,5.3v7.3h-2.9v-7c0-1.9-0.9-3.1-2.8-3.1
				c-1.6,0-2.9,1.2-2.9,3.4v6.8h-2.9V9.2z"/>
			<path class="st0" d="M175.9,20c-0.9,1.2-2.4,1.9-4,1.9c-3,0-6.1-2.4-6.1-6.4c0-4.1,3-6.5,6.1-6.5c1.6,0,3.1,0.7,4,1.8V9.2h2.9
				v12.1c0,3.5-2.2,6.3-6.4,6.3c-3.2,0-5.2-1.5-6.3-3.6l2.5-1.5c0.9,1.7,1.9,2.5,3.9,2.5c2.2,0,3.5-1.7,3.5-3.6V20z M176,15.4
				c0-2.1-1.6-3.8-3.7-3.8c-2.1,0-3.7,1.7-3.7,3.8c0,2.2,1.6,3.9,3.7,3.9C174.5,19.3,176,17.5,176,15.4z"/>
		</g>
	</g>
</g>
</svg>
