<?xml version="1.0" encoding="UTF-8" standalone="no" ?>
<!DOCTYPE svg PUBLIC "-//W3C//DTD SVG 1.1//EN" "http://www.w3.org/Graphics/SVG/1.1/DTD/svg11.dtd">
<svg xmlns="http://www.w3.org/2000/svg" xmlns:xlink="http://www.w3.org/1999/xlink" version="1.1" width="250" height="120" viewBox="0 -8.5 500 240" xml:space="preserve">
<desc>Created with Fabric.js 4.6.0</desc>
    <defs>
</defs>
    <g transform="matrix(3 0 0 3 432.16 111.84)" id="E5IfYpPVGf7trQ8Pw8P1C"  >
<g style="" vector-effect="non-scaling-stroke"   >
		<g transform="matrix(2 0 0 2 0 0)" id="8BzrFas1KUyOFPP9rasyP"  >
<path style="stroke: none; stroke-width: 1; stroke-dasharray: none; stroke-linecap: butt; stroke-dashoffset: 0; stroke-linejoin: miter; stroke-miterlimit: 4; fill: rgb(0,83,176); fill-rule: nonzero; opacity: 1;" vector-effect="non-scaling-stroke"  transform=" translate(-11, -11)" d="M 0 11 C 0 4.92487 4.92487 0 11 0 C 17.07513 0 22 4.92487 22 11 C 22 17.07513 17.07513 22 11 22 C 4.92487 22 0 17.07513 0 11 z" stroke-linecap="round" />
</g>
    <g transform="matrix(2 0 0 2 0 2.2)" id="qjptzBhU9PDH8CO4y7HuX"  >
<path style="stroke: none; stroke-width: 1; stroke-dasharray: none; stroke-linecap: butt; stroke-dashoffset: 0; stroke-linejoin: miter; stroke-miterlimit: 4; fill: rgb(255,255,255); fill-rule: nonzero; opacity: 1;" vector-effect="non-scaling-stroke"  transform=" translate(-11, -12.1)" d="M 17 8.20422 L 5 8.20422 L 5 9.73907 L 5.72562 9.73907 L 5.50016 15.2326 L 5 15.2326 L 5 16 L 17 16 L 17 15.2322 L 16.3498 15.2322 L 16.1248 9.73907 L 17 9.73907 L 17 8.20422 Z M 9.63547 15.2305 L 8.23437 15.2305 L 8.01125 9.74036 L 9.86187 9.74036 L 9.63547 15.2305 Z M 13.7628 15.2305 L 12.3617 15.2305 L 12.1381 9.74036 L 13.9892 9.74036 L 13.7628 15.2305 Z" stroke-linecap="round" />
</g>
    <g transform="matrix(2 0 0 2 0 -9.56)" id="Z7BvJe9Zd9XP_ktc8oIhE"  >
<path style="stroke: none; stroke-width: 1; stroke-dasharray: none; stroke-linecap: butt; stroke-dashoffset: 0; stroke-linejoin: miter; stroke-miterlimit: 4; fill: rgb(255,255,255); fill-rule: nonzero; opacity: 1;" vector-effect="non-scaling-stroke"  transform=" translate(-11, -6.22)" d="M 11 5 L 6.52527 7.43633 L 15.4751 7.43633 L 11 5 Z" stroke-linecap="round" />
</g>
</g>
</g>
    <g transform="matrix(1.91 0 0 1.91 176.67 111.84)" id="YcnkJGKvrFflRBQYT-fPP"  >
<g style="" vector-effect="non-scaling-stroke"   >
		<g transform="matrix(1 0 0 1 49.5 -14.02)" id="EZ1OGJZ6zhptkB_WOCuf-"  >
<path style="stroke: none; stroke-width: 1; stroke-dasharray: none; stroke-linecap: butt; stroke-dashoffset: 0; stroke-linejoin: miter; stroke-miterlimit: 4; fill: rgb(28,130,193); fill-rule: nonzero; opacity: 1;" vector-effect="non-scaling-stroke"  transform=" translate(-141.5, -43.98)" d="M 159.977 39.8424 L 159.977 48.0219 C 159.977 48.1848 159.953 48.3361 159.918 48.4757 C 159.756 49.2785 159.046 49.8836 158.208 49.8836 L 124.78 49.8836 C 123.884 49.8836 123.14 49.1971 123.046 48.3244 C 123.023 48.2197 123.023 48.1266 123.023 48.0103 L 123.023 39.8307 C 123.023 38.865 123.814 38.0854 124.768 38.0854 C 125.246 38.0854 125.688 38.2832 126.002 38.5974 C 126.316 38.9115 126.514 39.3537 126.514 39.8307 L 126.514 46.3814 L 156.498 46.3814 L 156.498 39.8307 C 156.498 38.865 157.289 38.0854 158.243 38.0854 C 158.72 38.0854 159.162 38.2832 159.476 38.5974 C 159.779 38.9232 159.977 39.3653 159.977 39.8424 Z" stroke-linecap="round" />
</g>
    <g transform="matrix(1 0 0 1 49.51 -31.07)" id="TbGQqBmde-vjbYePR33Ej"  >
<path style="stroke: none; stroke-width: 1; stroke-dasharray: none; stroke-linecap: butt; stroke-dashoffset: 0; stroke-linejoin: miter; stroke-miterlimit: 4; fill: rgb(28,130,193); fill-rule: nonzero; opacity: 1;" vector-effect="non-scaling-stroke"  transform=" translate(-141.51, -26.93)" d="M 151.564 22.2152 L 142.989 13.64 C 142.978 13.6168 142.954 13.6051 142.943 13.5935 C 142.629 13.2793 142.221 13.0815 141.814 13.0234 C 141.779 13.0234 141.744 13.0117 141.709 13.0117 C 141.64 13.0001 141.57 13.0001 141.5 13.0001 L 141.302 13.0117 C 141.267 13.0117 141.232 13.0234 141.197 13.0234 C 140.779 13.0815 140.383 13.2793 140.069 13.5935 C 140.057 13.6051 140.034 13.6284 140.022 13.64 L 131.447 22.2152 C 131.052 22.6108 130.854 23.1344 130.854 23.658 C 130.854 24.1815 131.052 24.7051 131.447 25.1007 C 132.238 25.8919 133.53 25.8919 134.333 25.1007 L 139.487 19.9463 L 139.487 38.8303 C 139.487 39.9473 140.406 40.8665 141.523 40.8665 C 142.082 40.8665 142.594 40.6338 142.966 40.2731 C 143.338 39.9007 143.559 39.4004 143.559 38.8303 L 143.559 19.9463 L 148.714 25.1007 C 149.505 25.8919 150.797 25.8919 151.599 25.1007 C 152.356 24.2979 152.356 23.0064 151.564 22.2152 Z" stroke-linecap="round" />
</g>
    <g transform="matrix(1 0 0 1 47 4.75)" id="8CdRD8aUWBl7fqTrx3VaV"  >
<path style="stroke: rgb(28,130,193); stroke-width: 4; stroke-dasharray: 6.5 6.5; stroke-linecap: round; stroke-dashoffset: 0; stroke-linejoin: round; stroke-miterlimit: 4; fill: none; fill-rule: nonzero; opacity: 1;" vector-effect="non-scaling-stroke"  transform=" translate(-139, -62.75)" d="M 182.5 62.75 L 95.5 62.75" stroke-linecap="round" />
</g>
    <g transform="matrix(1 0 0 1 49.5 17.67)" id="swKWduJZ08rtWLCIrdYT2"  >
<path style="stroke: none; stroke-width: 1; stroke-dasharray: none; stroke-linecap: butt; stroke-dashoffset: 0; stroke-linejoin: miter; stroke-miterlimit: 4; fill: rgb(28,130,193); fill-rule: nonzero; opacity: 1;" vector-effect="non-scaling-stroke"  transform=" translate(-141.5, -75.67)" d="M 131.02 72.1113 L 131.02 76.7305 C 131.02 77.5801 130.827 78.2295 130.443 78.6787 C 130.059 79.1247 129.504 79.3477 128.778 79.3477 C 128.069 79.3477 127.528 79.1263 127.157 78.6836 C 126.786 78.2376 126.601 77.5801 126.601 76.7109 L 126.601 72.1113 L 127.919 72.1113 L 127.919 76.8086 C 127.919 77.7168 128.22 78.1709 128.822 78.1709 C 129.102 78.1709 129.319 78.0553 129.472 77.8242 C 129.625 77.5931 129.701 77.2643 129.701 76.8379 L 129.701 72.1113 L 131.02 72.1113 Z M 136.042 74.3086 C 136.042 75.0671 135.85 75.6497 135.466 76.0566 C 135.085 76.4603 134.534 76.6621 133.811 76.6621 L 133.479 76.6621 L 133.479 79.25 L 132.151 79.25 L 132.151 72.1113 L 133.962 72.1113 C 135.349 72.1113 136.042 72.8438 136.042 74.3086 Z M 133.479 75.5098 L 133.733 75.5098 C 134.058 75.5098 134.301 75.4202 134.46 75.2412 C 134.62 75.0622 134.7 74.7692 134.7 74.3623 C 134.7 73.988 134.626 73.7113 134.48 73.5322 C 134.333 73.3499 134.107 73.2588 133.801 73.2588 L 133.479 73.2588 L 133.479 75.5098 Z M 136.841 79.25 L 136.841 72.1113 L 138.17 72.1113 L 138.17 78.0879 L 140.01 78.0879 L 140.01 79.25 L 136.841 79.25 Z M 145.673 75.6709 C 145.673 76.8525 145.451 77.7607 145.009 78.3955 C 144.566 79.0303 143.933 79.3477 143.109 79.3477 C 142.283 79.3477 141.648 79.0319 141.205 78.4004 C 140.762 77.7656 140.541 76.8525 140.541 75.6611 C 140.541 74.4795 140.762 73.5745 141.205 72.9463 C 141.648 72.3148 142.286 71.999 143.119 71.999 C 143.943 71.999 144.574 72.3164 145.014 72.9512 C 145.453 73.5827 145.673 74.4893 145.673 75.6709 Z M 141.898 75.6709 C 141.898 76.4847 142.001 77.1048 142.206 77.5312 C 142.411 77.9577 142.712 78.1709 143.109 78.1709 C 143.91 78.1709 144.311 77.3376 144.311 75.6709 C 144.311 74.0042 143.913 73.1709 143.119 73.1709 C 142.715 73.1709 142.411 73.3841 142.206 73.8105 C 142.001 74.2337 141.898 74.8538 141.898 75.6709 Z M 149.993 79.25 L 149.582 77.4482 L 147.722 77.4482 L 147.312 79.25 L 145.984 79.25 L 147.751 72.082 L 149.553 72.082 L 151.326 79.25 L 149.993 79.25 Z M 149.333 76.2715 L 148.952 74.6113 C 148.93 74.5104 148.878 74.2581 148.796 73.8545 C 148.718 73.4476 148.671 73.1758 148.655 73.0391 C 148.612 73.319 148.559 73.6283 148.493 73.9668 C 148.428 74.3021 148.259 75.0703 147.986 76.2715 L 149.333 76.2715 Z M 156.392 75.6123 C 156.392 76.7907 156.151 77.6924 155.67 78.3174 C 155.191 78.9391 154.501 79.25 153.599 79.25 L 151.851 79.25 L 151.851 72.1113 L 153.76 72.1113 C 154.59 72.1113 155.237 72.4189 155.699 73.0342 C 156.161 73.6462 156.392 74.5055 156.392 75.6123 Z M 155.03 75.6514 C 155.03 74.0563 154.59 73.2588 153.712 73.2588 L 153.179 73.2588 L 153.179 78.0879 L 153.609 78.0879 C 154.094 78.0879 154.452 77.8861 154.683 77.4824 C 154.914 77.0755 155.03 76.4652 155.03 75.6514 Z" stroke-linecap="round" />
</g>
    <g transform="matrix(1 0 0 1 -49.25 0)" id="J21L0e_HA2ztyM0EHB18D"  >
<path style="stroke: rgb(226,227,233); stroke-width: 1; stroke-dasharray: none; stroke-linecap: butt; stroke-dashoffset: 0; stroke-linejoin: miter; stroke-miterlimit: 4; fill: rgb(242,240,245); fill-rule: nonzero; opacity: 1;" vector-effect="non-scaling-stroke"  transform=" translate(-42.75, -58)" d="M 0 116 L 0 0 L 85.5 0 L 85.5 116 z" stroke-linecap="round" />
</g>
    <g transform="matrix(1 0 0 1 -80.34 -31.43)" id="zjntw4i2-1M8N5jS2lY7d"  >
<path style="stroke: none; stroke-width: 1; stroke-dasharray: none; stroke-linecap: butt; stroke-dashoffset: 0; stroke-linejoin: miter; stroke-miterlimit: 4; fill: rgb(187,189,203); fill-rule: nonzero; opacity: 1;" vector-effect="non-scaling-stroke"  transform=" translate(-1.25, -2)" d="M 0 4 L 0 0 L 2.5 0 L 2.5 4 z" stroke-linecap="round" />
</g>
    <g transform="matrix(1 0 0 1 -71.84 -32.43)" id="uDkwORVI1E_syV3d_0vlb"  >
<path style="stroke: none; stroke-width: 1; stroke-dasharray: none; stroke-linecap: butt; stroke-dashoffset: 0; stroke-linejoin: miter; stroke-miterlimit: 4; fill: rgb(187,189,203); fill-rule: nonzero; opacity: 1;" vector-effect="non-scaling-stroke"  transform=" translate(-1.25, -2)" d="M 0 4 L 0 0 L 2.5 0 L 2.5 4 z" stroke-linecap="round" />
</g>
    <g transform="matrix(1 0 0 1 -67.34 -32.43)" id="XpLii9yGf7tGse8SRc1OL"  >
<path style="stroke: none; stroke-width: 1; stroke-dasharray: none; stroke-linecap: butt; stroke-dashoffset: 0; stroke-linejoin: miter; stroke-miterlimit: 4; fill: rgb(187,189,203); fill-rule: nonzero; opacity: 1;" vector-effect="non-scaling-stroke"  transform=" translate(-1.25, -2)" d="M 0 4 L 0 0 L 2.5 0 L 2.5 4 z" stroke-linecap="round" />
</g>
    <g transform="matrix(1 0 0 1 -67.34 -20.43)" id="uW1NBbRUgBErIxmAiuHUh"  >
<path style="stroke: none; stroke-width: 1; stroke-dasharray: none; stroke-linecap: butt; stroke-dashoffset: 0; stroke-linejoin: miter; stroke-miterlimit: 4; fill: rgb(187,189,203); fill-rule: nonzero; opacity: 1;" vector-effect="non-scaling-stroke"  transform=" translate(-1.25, -2)" d="M 0 4 L 0 0 L 2.5 0 L 2.5 4 z" stroke-linecap="round" />
</g>
    <g transform="matrix(1 0 0 1 -62.34 -26.43)" id="bBnqOpwwHqIgFA4B9FKPY"  >
<path style="stroke: none; stroke-width: 1; stroke-dasharray: none; stroke-linecap: butt; stroke-dashoffset: 0; stroke-linejoin: miter; stroke-miterlimit: 4; fill: rgb(187,189,203); fill-rule: nonzero; opacity: 1;" vector-effect="non-scaling-stroke"  transform=" translate(-1.25, -2)" d="M 0 4 L 0 0 L 2.5 0 L 2.5 4 z" stroke-linecap="round" />
</g>
    <g transform="matrix(1 0 0 1 -62.34 -19.93)" id="Gog0FZ0-beilM6oJDlI0a"  >
<path style="stroke: none; stroke-width: 1; stroke-dasharray: none; stroke-linecap: butt; stroke-dashoffset: 0; stroke-linejoin: miter; stroke-miterlimit: 4; fill: rgb(187,189,203); fill-rule: nonzero; opacity: 1;" vector-effect="non-scaling-stroke"  transform=" translate(-1.25, -2)" d="M 0 4 L 0 0 L 2.5 0 L 2.5 4 z" stroke-linecap="round" />
</g>
    <g transform="matrix(1 0 0 1 -67.34 -7.18)" id="G3rQRoe4H2IVy-qz-jLit"  >
<path style="stroke: none; stroke-width: 1; stroke-dasharray: none; stroke-linecap: butt; stroke-dashoffset: 0; stroke-linejoin: miter; stroke-miterlimit: 4; fill: rgb(187,189,203); fill-rule: nonzero; opacity: 1;" vector-effect="non-scaling-stroke"  transform=" translate(-1.25, -2.25)" d="M 0 4.5 L 0 0 L 2.5 0 L 2.5 4.5 z" stroke-linecap="round" />
</g>
    <g transform="matrix(1 0 0 1 -62.34 -0.43)" id="QO979DsjubnaLwaGVmAhS"  >
<path style="stroke: none; stroke-width: 1; stroke-dasharray: none; stroke-linecap: butt; stroke-dashoffset: 0; stroke-linejoin: miter; stroke-miterlimit: 4; fill: rgb(187,189,203); fill-rule: nonzero; opacity: 1;" vector-effect="non-scaling-stroke"  transform=" translate(-1.25, -2)" d="M 0 4 L 0 0 L 2.5 0 L 2.5 4 z" stroke-linecap="round" />
</g>
    <g transform="matrix(1 0 0 1 -67.34 24.07)" id="VT2tLx7yEqBAmXEzqUVeQ"  >
<path style="stroke: none; stroke-width: 1; stroke-dasharray: none; stroke-linecap: butt; stroke-dashoffset: 0; stroke-linejoin: miter; stroke-miterlimit: 4; fill: rgb(187,189,203); fill-rule: nonzero; opacity: 1;" vector-effect="non-scaling-stroke"  transform=" translate(-1.25, -2)" d="M 0 4 L 0 0 L 2.5 0 L 2.5 4 z" stroke-linecap="round" />
</g>
    <g transform="matrix(1 0 0 1 -71.84 -0.43)" id="49O730_Jnas-735EJCdcQ"  >
<path style="stroke: none; stroke-width: 1; stroke-dasharray: none; stroke-linecap: butt; stroke-dashoffset: 0; stroke-linejoin: miter; stroke-miterlimit: 4; fill: rgb(187,189,203); fill-rule: nonzero; opacity: 1;" vector-effect="non-scaling-stroke"  transform=" translate(-1.25, -2)" d="M 0 4 L 0 0 L 2.5 0 L 2.5 4 z" stroke-linecap="round" />
</g>
    <g transform="matrix(1 0 0 1 -80.34 -24.93)" id="bp9GMcCa4y7Ls6-zzlwwV"  >
<path style="stroke: none; stroke-width: 1; stroke-dasharray: none; stroke-linecap: butt; stroke-dashoffset: 0; stroke-linejoin: miter; stroke-miterlimit: 4; fill: rgb(187,189,203); fill-rule: nonzero; opacity: 1;" vector-effect="non-scaling-stroke"  transform=" translate(-1.25, -2)" d="M 0 4 L 0 0 L 2.5 0 L 2.5 4 z" stroke-linecap="round" />
</g>
    <g transform="matrix(1 0 0 1 -80.34 38.07)" id="HJSpRybvdodTux8GTtpbc"  >
<path style="stroke: none; stroke-width: 1; stroke-dasharray: none; stroke-linecap: butt; stroke-dashoffset: 0; stroke-linejoin: miter; stroke-miterlimit: 4; fill: rgb(187,189,203); fill-rule: nonzero; opacity: 1;" vector-effect="non-scaling-stroke"  transform=" translate(-1.25, -2)" d="M 0 4 L 0 0 L 2.5 0 L 2.5 4 z" stroke-linecap="round" />
</g>
    <g transform="matrix(1 0 0 1 -80.34 51.32)" id="2k5OagE0urD7FS7-31Cs1"  >
<path style="stroke: none; stroke-width: 1; stroke-dasharray: none; stroke-linecap: butt; stroke-dashoffset: 0; stroke-linejoin: miter; stroke-miterlimit: 4; fill: rgb(187,189,203); fill-rule: nonzero; opacity: 1;" vector-effect="non-scaling-stroke"  transform=" translate(-1.25, -2.25)" d="M 0 4.5 L 0 0 L 2.5 0 L 2.5 4.5 z" stroke-linecap="round" />
</g>
    <g transform="matrix(1 0 0 1 -80.84 -19.68)" id="BRvFdmMuAODvBPpQIPAca"  >
<path style="stroke: none; stroke-width: 1; stroke-dasharray: none; stroke-linecap: butt; stroke-dashoffset: 0; stroke-linejoin: miter; stroke-miterlimit: 4; fill: rgb(187,189,203); fill-rule: nonzero; opacity: 1;" vector-effect="non-scaling-stroke"  transform=" translate(-1.75, -0.25)" d="M 0 0.5 L 0 0 L 3.5 0 L 3.5 0.5 z" stroke-linecap="round" />
</g>
    <g transform="matrix(1 0 0 1 -67.34 -13.68)" id="Mtccie15Ghwg0CQBU0Fhi"  >
<path style="stroke: none; stroke-width: 1; stroke-dasharray: none; stroke-linecap: butt; stroke-dashoffset: 0; stroke-linejoin: miter; stroke-miterlimit: 4; fill: rgb(187,189,203); fill-rule: nonzero; opacity: 1;" vector-effect="non-scaling-stroke"  transform=" translate(-1.75, -0.25)" d="M 0 0.5 L 0 0 L 3.5 0 L 3.5 0.5 z" stroke-linecap="round" />
</g>
    <g transform="matrix(1 0 0 1 -80.84 12.82)" id="tOs5aJeZ-xLfgWE2r1BJe"  >
<path style="stroke: none; stroke-width: 1; stroke-dasharray: none; stroke-linecap: butt; stroke-dashoffset: 0; stroke-linejoin: miter; stroke-miterlimit: 4; fill: rgb(187,189,203); fill-rule: nonzero; opacity: 1;" vector-effect="non-scaling-stroke"  transform=" translate(-1.75, -0.25)" d="M 0 0.5 L 0 0 L 3.5 0 L 3.5 0.5 z" stroke-linecap="round" />
</g>
    <g transform="matrix(1 0 0 1 -80.84 18.32)" id="MixgFvGvfjnPGBDS9DRC2"  >
<path style="stroke: none; stroke-width: 1; stroke-dasharray: none; stroke-linecap: butt; stroke-dashoffset: 0; stroke-linejoin: miter; stroke-miterlimit: 4; fill: rgb(187,189,203); fill-rule: nonzero; opacity: 1;" vector-effect="non-scaling-stroke"  transform=" translate(-1.75, -0.25)" d="M 0 0.5 L 0 0 L 3.5 0 L 3.5 0.5 z" stroke-linecap="round" />
</g>
    <g transform="matrix(1 0 0 1 -67.34 50.82)" id="mM4K0zWWnZRck5Vuzt5Sl"  >
<path style="stroke: none; stroke-width: 1; stroke-dasharray: none; stroke-linecap: butt; stroke-dashoffset: 0; stroke-linejoin: miter; stroke-miterlimit: 4; fill: rgb(187,189,203); fill-rule: nonzero; opacity: 1;" vector-effect="non-scaling-stroke"  transform=" translate(-1.75, -0.25)" d="M 0 0.5 L 0 0 L 3.5 0 L 3.5 0.5 z" stroke-linecap="round" />
</g>
    <g transform="matrix(1 0 0 1 -80.34 -13.43)" id="W0yNpOzSmcB-nrf7zdXeO" clip-path="url(#CLIPPATH_7347)"  >
<clipPath id="CLIPPATH_7347" >
	<rect transform="matrix(1 0 0 1 32.84 14.93)" id="clip0" x="-44.5" y="-59.5" rx="0" ry="0" width="89" height="119" />
</clipPath>
        <path style="stroke: none; stroke-width: 1; stroke-dasharray: none; stroke-linecap: butt; stroke-dashoffset: 0; stroke-linejoin: miter; stroke-miterlimit: 4; fill: rgb(187,189,203); fill-rule: nonzero; opacity: 1;" vector-effect="non-scaling-stroke"  transform=" translate(-11.66, -44.57)" d="M 10.4075 42.5676 L 10.4075 43.5675 L 11.4073 43.5675 L 11.4073 45.5677 L 10.4075 45.5677 L 10.4075 46.5676 L 12.9075 46.5676 L 12.9075 42.5676 L 10.4075 42.5676 Z" stroke-linecap="round" />
</g>
    <g transform="matrix(1 0 0 1 -71.84 -20.43)" id="0P4O22YkKesrhTc2TzKG-" clip-path="url(#CLIPPATH_7348)"  >
<clipPath id="CLIPPATH_7348" >
	<rect transform="matrix(1 0 0 1 24.34 21.93)" id="clip0" x="-44.5" y="-59.5" rx="0" ry="0" width="89" height="119" />
</clipPath>
        <path style="stroke: none; stroke-width: 1; stroke-dasharray: none; stroke-linecap: butt; stroke-dashoffset: 0; stroke-linejoin: miter; stroke-miterlimit: 4; fill: rgb(187,189,203); fill-rule: nonzero; opacity: 1;" vector-effect="non-scaling-stroke"  transform=" translate(-20.16, -37.57)" d="M 18.9075 35.5676 L 18.9075 36.5675 L 19.9073 36.5675 L 19.9073 38.5677 L 18.9075 38.5677 L 18.9075 39.5676 L 21.4075 39.5676 L 21.4075 35.5676 L 18.9075 35.5676 Z" stroke-linecap="round" />
</g>
    <g transform="matrix(1 0 0 1 -62.34 -13.93)" id="3UYwkIqYQBx7aGvSPr_68" clip-path="url(#CLIPPATH_7349)"  >
<clipPath id="CLIPPATH_7349" >
	<rect transform="matrix(1 0 0 1 14.84 15.43)" id="clip0" x="-44.5" y="-59.5" rx="0" ry="0" width="89" height="119" />
</clipPath>
        <path style="stroke: none; stroke-width: 1; stroke-dasharray: none; stroke-linecap: butt; stroke-dashoffset: 0; stroke-linejoin: miter; stroke-miterlimit: 4; fill: rgb(187,189,203); fill-rule: nonzero; opacity: 1;" vector-effect="non-scaling-stroke"  transform=" translate(-29.66, -44.07)" d="M 28.4075 42.0676 L 28.4075 43.0678 L 29.4073 43.0678 L 29.4073 45.0678 L 28.4075 45.0678 L 28.4075 46.0676 L 30.9075 46.0676 L 30.9075 42.0676 L 28.4075 42.0676 Z" stroke-linecap="round" />
</g>
    <g transform="matrix(1 0 0 1 -62.34 6.07)" id="c4n_iEBBG4PUie-HPPyAh" clip-path="url(#CLIPPATH_7350)"  >
<clipPath id="CLIPPATH_7350" >
	<rect transform="matrix(1 0 0 1 14.84 -4.57)" id="clip0" x="-44.5" y="-59.5" rx="0" ry="0" width="89" height="119" />
</clipPath>
        <path style="stroke: none; stroke-width: 1; stroke-dasharray: none; stroke-linecap: butt; stroke-dashoffset: 0; stroke-linejoin: miter; stroke-miterlimit: 4; fill: rgb(187,189,203); fill-rule: nonzero; opacity: 1;" vector-effect="non-scaling-stroke"  transform=" translate(-29.66, -64.07)" d="M 28.4075 62.0676 L 28.4075 63.0675 L 29.4073 63.0675 L 29.4073 65.0677 L 28.4075 65.0677 L 28.4075 66.0676 L 30.9075 66.0676 L 30.9075 62.0676 L 28.4075 62.0676 Z" stroke-linecap="round" />
</g>
    <g transform="matrix(1 0 0 1 -62.34 12.57)" id="8z3OFDKjkuleicFbhYN-x" clip-path="url(#CLIPPATH_7351)"  >
<clipPath id="CLIPPATH_7351" >
	<rect transform="matrix(1 0 0 1 14.84 -11.07)" id="clip0" x="-44.5" y="-59.5" rx="0" ry="0" width="89" height="119" />
</clipPath>
        <path style="stroke: none; stroke-width: 1; stroke-dasharray: none; stroke-linecap: butt; stroke-dashoffset: 0; stroke-linejoin: miter; stroke-miterlimit: 4; fill: rgb(187,189,203); fill-rule: nonzero; opacity: 1;" vector-effect="non-scaling-stroke"  transform=" translate(-29.66, -70.57)" d="M 28.4075 68.5676 L 28.4075 69.5678 L 29.4073 69.5678 L 29.4073 71.5678 L 28.4075 71.5678 L 28.4075 72.5676 L 30.9075 72.5676 L 30.9075 68.5676 L 28.4075 68.5676 Z" stroke-linecap="round" />
</g>
    <g transform="matrix(1 0 0 1 -62.34 -7.68)" id="dbQg3zrA4s94Cs3vLZstd" clip-path="url(#CLIPPATH_7352)"  >
<clipPath id="CLIPPATH_7352" >
	<rect transform="matrix(1 0 0 1 14.84 9.18)" id="clip0" x="-44.5" y="-59.5" rx="0" ry="0" width="89" height="119" />
</clipPath>
        <path style="stroke: none; stroke-width: 1; stroke-dasharray: none; stroke-linecap: butt; stroke-dashoffset: 0; stroke-linejoin: miter; stroke-miterlimit: 4; fill: rgb(187,189,203); fill-rule: nonzero; opacity: 1;" vector-effect="non-scaling-stroke"  transform=" translate(-29.66, -50.32)" d="M 28.4075 48.0676 L 28.4075 49.1924 L 29.4073 49.1924 L 29.4073 51.4424 L 28.4075 51.4424 L 28.4075 52.5676 L 30.9075 52.5676 L 30.9075 48.0676 L 28.4075 48.0676 Z" stroke-linecap="round" />
</g>
    <g transform="matrix(1 0 0 1 -67.34 -26.43)" id="F0Zc4qYTJSZJRQsWsCltb" clip-path="url(#CLIPPATH_7353)"  >
<clipPath id="CLIPPATH_7353" >
	<rect transform="matrix(1 0 0 1 19.84 27.93)" id="clip0" x="-44.5" y="-59.5" rx="0" ry="0" width="89" height="119" />
</clipPath>
        <path style="stroke: none; stroke-width: 1; stroke-dasharray: none; stroke-linecap: butt; stroke-dashoffset: 0; stroke-linejoin: miter; stroke-miterlimit: 4; fill: rgb(187,189,203); fill-rule: nonzero; opacity: 1;" vector-effect="non-scaling-stroke"  transform=" translate(-24.66, -31.57)" d="M 23.4075 29.5676 L 23.4075 30.5678 L 24.4075 30.5678 L 24.4075 32.5675 L 23.4075 32.5675 L 23.4075 33.5676 L 25.9075 33.5676 L 25.9075 29.5676 L 23.4075 29.5676 Z" stroke-linecap="round" />
</g>
    <g transform="matrix(1 0 0 1 -67.34 6.07)" id="S6W71ARoVTO33tJFWi9ds"  >
<path style="stroke: none; stroke-width: 1; stroke-dasharray: none; stroke-linecap: butt; stroke-dashoffset: 0; stroke-linejoin: miter; stroke-miterlimit: 4; fill: rgb(187,189,203); fill-rule: nonzero; opacity: 1;" vector-effect="non-scaling-stroke"  transform=" translate(-1.25, -2)" d="M 0 4 L 0 0 L 2.5 0 L 2.5 4 z" stroke-linecap="round" />
</g>
    <g transform="matrix(1 0 0 1 -67.34 18.07)" id="9RS1QvoPFxOphnMSvcFxP"  >
<path style="stroke: none; stroke-width: 1; stroke-dasharray: none; stroke-linecap: butt; stroke-dashoffset: 0; stroke-linejoin: miter; stroke-miterlimit: 4; fill: rgb(187,189,203); fill-rule: nonzero; opacity: 1;" vector-effect="non-scaling-stroke"  transform=" translate(-1.25, -2)" d="M 0 4 L 0 0 L 2.5 0 L 2.5 4 z" stroke-linecap="round" />
</g>
    <g transform="matrix(1 0 0 1 -67.34 12.07)" id="K8PZ8t6l1X7BRqf05Dr5m" clip-path="url(#CLIPPATH_7354)"  >
<clipPath id="CLIPPATH_7354" >
	<rect transform="matrix(1 0 0 1 19.84 -10.57)" id="clip0" x="-44.5" y="-59.5" rx="0" ry="0" width="89" height="119" />
</clipPath>
        <path style="stroke: none; stroke-width: 1; stroke-dasharray: none; stroke-linecap: butt; stroke-dashoffset: 0; stroke-linejoin: miter; stroke-miterlimit: 4; fill: rgb(187,189,203); fill-rule: nonzero; opacity: 1;" vector-effect="non-scaling-stroke"  transform=" translate(-24.66, -70.07)" d="M 23.4075 68.0676 L 23.4075 69.0675 L 24.4075 69.0675 L 24.4075 71.0675 L 23.4075 71.0675 L 23.4075 72.0676 L 25.9075 72.0676 L 25.9075 68.0676 L 23.4075 68.0676 Z" stroke-linecap="round" />
</g>
    <g transform="matrix(1 0 0 1 -71.84 -13.93)" id="IGzYTYnzY1KKO_CneilPU" clip-path="url(#CLIPPATH_7355)"  >
<clipPath id="CLIPPATH_7355" >
	<rect transform="matrix(1 0 0 1 24.34 15.43)" id="clip0" x="-44.5" y="-59.5" rx="0" ry="0" width="89" height="119" />
</clipPath>
        <path style="stroke: none; stroke-width: 1; stroke-dasharray: none; stroke-linecap: butt; stroke-dashoffset: 0; stroke-linejoin: miter; stroke-miterlimit: 4; fill: rgb(187,189,203); fill-rule: nonzero; opacity: 1;" vector-effect="non-scaling-stroke"  transform=" translate(-20.16, -44.07)" d="M 18.9075 42.0676 L 18.9075 43.0678 L 19.9073 43.0678 L 19.9073 45.0678 L 18.9075 45.0678 L 18.9075 46.0676 L 21.4075 46.0676 L 21.4075 42.0676 L 18.9075 42.0676 Z" stroke-linecap="round" />
</g>
    <g transform="matrix(1 0 0 1 -71.84 -7.18)" id="05qVMd7flFR4qkOXA9X_g" clip-path="url(#CLIPPATH_7356)"  >
<clipPath id="CLIPPATH_7356" >
	<rect transform="matrix(1 0 0 1 24.34 8.68)" id="clip0" x="-44.5" y="-59.5" rx="0" ry="0" width="89" height="119" />
</clipPath>
        <path style="stroke: none; stroke-width: 1; stroke-dasharray: none; stroke-linecap: butt; stroke-dashoffset: 0; stroke-linejoin: miter; stroke-miterlimit: 4; fill: rgb(187,189,203); fill-rule: nonzero; opacity: 1;" vector-effect="non-scaling-stroke"  transform=" translate(-20.16, -50.82)" d="M 18.9075 48.5676 L 18.9075 49.6928 L 19.9073 49.6928 L 19.9073 51.9424 L 18.9075 51.9424 L 18.9075 53.0676 L 21.4075 53.0676 L 21.4075 48.5676 L 18.9075 48.5676 Z" stroke-linecap="round" />
</g>
    <g transform="matrix(1 0 0 1 -71.84 12.57)" id="2Yuam3zNhQbdCmfMy59fv"  >
<path style="stroke: none; stroke-width: 1; stroke-dasharray: none; stroke-linecap: butt; stroke-dashoffset: 0; stroke-linejoin: miter; stroke-miterlimit: 4; fill: rgb(187,189,203); fill-rule: nonzero; opacity: 1;" vector-effect="non-scaling-stroke"  transform=" translate(-1.25, -2)" d="M 0 4 L 0 0 L 2.5 0 L 2.5 4 z" stroke-linecap="round" />
</g>
    <g transform="matrix(1 0 0 1 -71.84 6.07)" id="OAwDaWeYiv4QqBvdkK-df" clip-path="url(#CLIPPATH_7357)"  >
<clipPath id="CLIPPATH_7357" >
	<rect transform="matrix(1 0 0 1 24.34 -4.57)" id="clip0" x="-44.5" y="-59.5" rx="0" ry="0" width="89" height="119" />
</clipPath>
        <path style="stroke: none; stroke-width: 1; stroke-dasharray: none; stroke-linecap: butt; stroke-dashoffset: 0; stroke-linejoin: miter; stroke-miterlimit: 4; fill: rgb(187,189,203); fill-rule: nonzero; opacity: 1;" vector-effect="non-scaling-stroke"  transform=" translate(-20.16, -64.07)" d="M 18.9075 62.0676 L 18.9075 63.0675 L 19.9073 63.0675 L 19.9073 65.0677 L 18.9075 65.0677 L 18.9075 66.0676 L 21.4075 66.0676 L 21.4075 62.0676 L 18.9075 62.0676 Z" stroke-linecap="round" />
</g>
    <g transform="matrix(1 0 0 1 -71.84 25.57)" id="bpbHclARFt4kSSu34qHZJ"  >
<path style="stroke: none; stroke-width: 1; stroke-dasharray: none; stroke-linecap: butt; stroke-dashoffset: 0; stroke-linejoin: miter; stroke-miterlimit: 4; fill: rgb(187,189,203); fill-rule: nonzero; opacity: 1;" vector-effect="non-scaling-stroke"  transform=" translate(-1.25, -2)" d="M 0 4 L 0 0 L 2.5 0 L 2.5 4 z" stroke-linecap="round" />
</g>
    <g transform="matrix(1 0 0 1 -71.84 19.07)" id="gfUAX8JJ03d-lUpteNi-J" clip-path="url(#CLIPPATH_7358)"  >
<clipPath id="CLIPPATH_7358" >
	<rect transform="matrix(1 0 0 1 24.34 -17.57)" id="clip0" x="-44.5" y="-59.5" rx="0" ry="0" width="89" height="119" />
</clipPath>
        <path style="stroke: none; stroke-width: 1; stroke-dasharray: none; stroke-linecap: butt; stroke-dashoffset: 0; stroke-linejoin: miter; stroke-miterlimit: 4; fill: rgb(187,189,203); fill-rule: nonzero; opacity: 1;" vector-effect="non-scaling-stroke"  transform=" translate(-20.16, -77.07)" d="M 18.9075 75.0676 L 18.9075 76.0675 L 19.9073 76.0675 L 19.9073 78.0675 L 18.9075 78.0675 L 18.9075 79.0676 L 21.4075 79.0676 L 21.4075 75.0676 L 18.9075 75.0676 Z" stroke-linecap="round" />
</g>
    <g transform="matrix(1 0 0 1 -71.84 38.57)" id="nAmf45WZr6BV9pKf1qHNf"  >
<path style="stroke: none; stroke-width: 1; stroke-dasharray: none; stroke-linecap: butt; stroke-dashoffset: 0; stroke-linejoin: miter; stroke-miterlimit: 4; fill: rgb(187,189,203); fill-rule: nonzero; opacity: 1;" vector-effect="non-scaling-stroke"  transform=" translate(-1.25, -2)" d="M 0 4 L 0 0 L 2.5 0 L 2.5 4 z" stroke-linecap="round" />
</g>
    <g transform="matrix(1 0 0 1 -67.34 37.57)" id="4dXRq7EOo1Zvawva2ZyC6"  >
<path style="stroke: none; stroke-width: 1; stroke-dasharray: none; stroke-linecap: butt; stroke-dashoffset: 0; stroke-linejoin: miter; stroke-miterlimit: 4; fill: rgb(187,189,203); fill-rule: nonzero; opacity: 1;" vector-effect="non-scaling-stroke"  transform=" translate(-1.25, -2)" d="M 0 4 L 0 0 L 2.5 0 L 2.5 4 z" stroke-linecap="round" />
</g>
    <g transform="matrix(1 0 0 1 -71.84 32.07)" id="u1tkb6zFHtammiN2Zl0WH" clip-path="url(#CLIPPATH_7359)"  >
<clipPath id="CLIPPATH_7359" >
	<rect transform="matrix(1 0 0 1 24.34 -30.57)" id="clip0" x="-44.5" y="-59.5" rx="0" ry="0" width="89" height="119" />
</clipPath>
        <path style="stroke: none; stroke-width: 1; stroke-dasharray: none; stroke-linecap: butt; stroke-dashoffset: 0; stroke-linejoin: miter; stroke-miterlimit: 4; fill: rgb(187,189,203); fill-rule: nonzero; opacity: 1;" vector-effect="non-scaling-stroke"  transform=" translate(-20.16, -90.07)" d="M 18.9075 88.0676 L 18.9075 89.0678 L 19.9073 89.0678 L 19.9073 91.0678 L 18.9075 91.0678 L 18.9075 92.0676 L 21.4075 92.0676 L 21.4075 88.0676 L 18.9075 88.0676 Z" stroke-linecap="round" />
</g>
    <g transform="matrix(1 0 0 1 -62.34 32.07)" id="GOj8z8PGk2r8TKpNPJQzq" clip-path="url(#CLIPPATH_7360)"  >
<clipPath id="CLIPPATH_7360" >
	<rect transform="matrix(1 0 0 1 14.84 -30.57)" id="clip0" x="-44.5" y="-59.5" rx="0" ry="0" width="89" height="119" />
</clipPath>
        <path style="stroke: none; stroke-width: 1; stroke-dasharray: none; stroke-linecap: butt; stroke-dashoffset: 0; stroke-linejoin: miter; stroke-miterlimit: 4; fill: rgb(187,189,203); fill-rule: nonzero; opacity: 1;" vector-effect="non-scaling-stroke"  transform=" translate(-29.66, -90.07)" d="M 28.4075 88.0676 L 28.4075 89.0678 L 29.4073 89.0678 L 29.4073 91.0678 L 28.4075 91.0678 L 28.4075 92.0676 L 30.9075 92.0676 L 30.9075 88.0676 L 28.4075 88.0676 Z" stroke-linecap="round" />
</g>
    <g transform="matrix(1 0 0 1 -36.34 -26.43)" id="sWhI49T_0bg5X2UO7w6Xk"  >
<path style="stroke: none; stroke-width: 1; stroke-dasharray: none; stroke-linecap: butt; stroke-dashoffset: 0; stroke-linejoin: miter; stroke-miterlimit: 4; fill: rgb(187,189,203); fill-rule: nonzero; opacity: 1;" vector-effect="non-scaling-stroke"  transform=" translate(-1.25, -2)" d="M 0 4 L 0 0 L 2.5 0 L 2.5 4 z" stroke-linecap="round" />
</g>
    <g transform="matrix(1 0 0 1 -36.34 -19.93)" id="8-9dSdDZn7lYk7uFwaFaY"  >
<path style="stroke: none; stroke-width: 1; stroke-dasharray: none; stroke-linecap: butt; stroke-dashoffset: 0; stroke-linejoin: miter; stroke-miterlimit: 4; fill: rgb(187,189,203); fill-rule: nonzero; opacity: 1;" vector-effect="non-scaling-stroke"  transform=" translate(-1.25, -2)" d="M 0 4 L 0 0 L 2.5 0 L 2.5 4 z" stroke-linecap="round" />
</g>
    <g transform="matrix(1 0 0 1 -36.34 -0.43)" id="gTKS6yzbuXe8tFOrBD_a8"  >
<path style="stroke: none; stroke-width: 1; stroke-dasharray: none; stroke-linecap: butt; stroke-dashoffset: 0; stroke-linejoin: miter; stroke-miterlimit: 4; fill: rgb(187,189,203); fill-rule: nonzero; opacity: 1;" vector-effect="non-scaling-stroke"  transform=" translate(-1.25, -2)" d="M 0 4 L 0 0 L 2.5 0 L 2.5 4 z" stroke-linecap="round" />
</g>
    <g transform="matrix(1 0 0 1 -36.34 -13.93)" id="sbnmv8sLkrP_nSqoMegN4" clip-path="url(#CLIPPATH_7361)"  >
<clipPath id="CLIPPATH_7361" >
	<rect transform="matrix(1 0 0 1 -11.16 15.43)" id="clip0" x="-44.5" y="-59.5" rx="0" ry="0" width="89" height="119" />
</clipPath>
        <path style="stroke: none; stroke-width: 1; stroke-dasharray: none; stroke-linecap: butt; stroke-dashoffset: 0; stroke-linejoin: miter; stroke-miterlimit: 4; fill: rgb(187,189,203); fill-rule: nonzero; opacity: 1;" vector-effect="non-scaling-stroke"  transform=" translate(-55.66, -44.07)" d="M 54.4075 42.0676 L 54.4075 43.0678 L 55.4077 43.0678 L 55.4077 45.0678 L 54.4075 45.0678 L 54.4075 46.0676 L 56.9075 46.0676 L 56.9075 42.0676 L 54.4075 42.0676 Z" stroke-linecap="round" />
</g>
    <g transform="matrix(1 0 0 1 -36.34 6.07)" id="brg1UhOH7aLMQ2NOczNH4" clip-path="url(#CLIPPATH_7362)"  >
<clipPath id="CLIPPATH_7362" >
	<rect transform="matrix(1 0 0 1 -11.16 -4.57)" id="clip0" x="-44.5" y="-59.5" rx="0" ry="0" width="89" height="119" />
</clipPath>
        <path style="stroke: none; stroke-width: 1; stroke-dasharray: none; stroke-linecap: butt; stroke-dashoffset: 0; stroke-linejoin: miter; stroke-miterlimit: 4; fill: rgb(187,189,203); fill-rule: nonzero; opacity: 1;" vector-effect="non-scaling-stroke"  transform=" translate(-55.66, -64.07)" d="M 54.4075 62.0676 L 54.4075 63.0675 L 55.4077 63.0675 L 55.4077 65.0677 L 54.4075 65.0677 L 54.4075 66.0676 L 56.9075 66.0676 L 56.9075 62.0676 L 54.4075 62.0676 Z" stroke-linecap="round" />
</g>
    <g transform="matrix(1 0 0 1 -36.34 12.57)" id="bRgKWjLMKHa8rO6CIEIhk" clip-path="url(#CLIPPATH_7363)"  >
<clipPath id="CLIPPATH_7363" >
	<rect transform="matrix(1 0 0 1 -11.16 -11.07)" id="clip0" x="-44.5" y="-59.5" rx="0" ry="0" width="89" height="119" />
</clipPath>
        <path style="stroke: none; stroke-width: 1; stroke-dasharray: none; stroke-linecap: butt; stroke-dashoffset: 0; stroke-linejoin: miter; stroke-miterlimit: 4; fill: rgb(187,189,203); fill-rule: nonzero; opacity: 1;" vector-effect="non-scaling-stroke"  transform=" translate(-55.66, -70.57)" d="M 54.4075 68.5676 L 54.4075 69.5678 L 55.4077 69.5678 L 55.4077 71.5678 L 54.4075 71.5678 L 54.4075 72.5676 L 56.9075 72.5676 L 56.9075 68.5676 L 54.4075 68.5676 Z" stroke-linecap="round" />
</g>
    <g transform="matrix(1 0 0 1 -36.34 -7.68)" id="DUw7LaM-9Ysl9HSJiR8W4" clip-path="url(#CLIPPATH_7364)"  >
<clipPath id="CLIPPATH_7364" >
	<rect transform="matrix(1 0 0 1 -11.16 9.18)" id="clip0" x="-44.5" y="-59.5" rx="0" ry="0" width="89" height="119" />
</clipPath>
        <path style="stroke: none; stroke-width: 1; stroke-dasharray: none; stroke-linecap: butt; stroke-dashoffset: 0; stroke-linejoin: miter; stroke-miterlimit: 4; fill: rgb(187,189,203); fill-rule: nonzero; opacity: 1;" vector-effect="non-scaling-stroke"  transform=" translate(-55.66, -50.32)" d="M 54.4075 48.0676 L 54.4075 49.1924 L 55.4077 49.1924 L 55.4077 51.4424 L 54.4075 51.4424 L 54.4075 52.5676 L 56.9075 52.5676 L 56.9075 48.0676 L 54.4075 48.0676 Z" stroke-linecap="round" />
</g>
    <g transform="matrix(1 0 0 1 -36.34 32.07)" id="eqFSRcUx334pUxO4z7DHI" clip-path="url(#CLIPPATH_7365)"  >
<clipPath id="CLIPPATH_7365" >
	<rect transform="matrix(1 0 0 1 -11.16 -30.57)" id="clip0" x="-44.5" y="-59.5" rx="0" ry="0" width="89" height="119" />
</clipPath>
        <path style="stroke: none; stroke-width: 1; stroke-dasharray: none; stroke-linecap: butt; stroke-dashoffset: 0; stroke-linejoin: miter; stroke-miterlimit: 4; fill: rgb(187,189,203); fill-rule: nonzero; opacity: 1;" vector-effect="non-scaling-stroke"  transform=" translate(-55.66, -90.07)" d="M 54.4075 88.0676 L 54.4075 89.0678 L 55.4077 89.0678 L 55.4077 91.0678 L 54.4075 91.0678 L 54.4075 92.0676 L 56.9075 92.0676 L 56.9075 88.0676 L 54.4075 88.0676 Z" stroke-linecap="round" />
</g>
    <g transform="matrix(1 0 0 1 -71.84 51.82)" id="PPz0xoiqvZG0ryTkrGlu1"  >
<path style="stroke: none; stroke-width: 1; stroke-dasharray: none; stroke-linecap: butt; stroke-dashoffset: 0; stroke-linejoin: miter; stroke-miterlimit: 4; fill: rgb(187,189,203); fill-rule: nonzero; opacity: 1;" vector-effect="non-scaling-stroke"  transform=" translate(-1.25, -2.25)" d="M 0 4.5 L 0 0 L 2.5 0 L 2.5 4.5 z" stroke-linecap="round" />
</g>
    <g transform="matrix(1 0 0 1 -67.34 44.07)" id="qnySCifA419hzpVX8SpVM"  >
<path style="stroke: none; stroke-width: 1; stroke-dasharray: none; stroke-linecap: butt; stroke-dashoffset: 0; stroke-linejoin: miter; stroke-miterlimit: 4; fill: rgb(187,189,203); fill-rule: nonzero; opacity: 1;" vector-effect="non-scaling-stroke"  transform=" translate(-1.25, -2)" d="M 0 4 L 0 0 L 2.5 0 L 2.5 4 z" stroke-linecap="round" />
</g>
    <g transform="matrix(1 0 0 1 -71.84 45.07)" id="bRdPCnMhbdji-k0qFoGJB" clip-path="url(#CLIPPATH_7366)"  >
<clipPath id="CLIPPATH_7366" >
	<rect transform="matrix(1 0 0 1 24.34 -43.57)" id="clip0" x="-44.5" y="-59.5" rx="0" ry="0" width="89" height="119" />
</clipPath>
        <path style="stroke: none; stroke-width: 1; stroke-dasharray: none; stroke-linecap: butt; stroke-dashoffset: 0; stroke-linejoin: miter; stroke-miterlimit: 4; fill: rgb(187,189,203); fill-rule: nonzero; opacity: 1;" vector-effect="non-scaling-stroke"  transform=" translate(-20.16, -103.07)" d="M 18.9075 101.068 L 18.9075 102.067 L 19.9073 102.067 L 19.9073 104.067 L 18.9075 104.067 L 18.9075 105.068 L 21.4075 105.068 L 21.4075 101.068 L 18.9075 101.068 Z" stroke-linecap="round" />
</g>
    <g transform="matrix(1 0 0 1 -44.34 -32.43)" id="AaI4aZyf07FUT8FTwvJ4_"  >
<path style="stroke: none; stroke-width: 1; stroke-dasharray: none; stroke-linecap: butt; stroke-dashoffset: 0; stroke-linejoin: miter; stroke-miterlimit: 4; fill: rgb(187,189,203); fill-rule: nonzero; opacity: 1;" vector-effect="non-scaling-stroke"  transform=" translate(-1.25, -2)" d="M 0 4 L 0 0 L 2.5 0 L 2.5 4 z" stroke-linecap="round" />
</g>
    <g transform="matrix(1 0 0 1 -44.34 -0.43)" id="99dLyPc0-57500aawjOgW"  >
<path style="stroke: none; stroke-width: 1; stroke-dasharray: none; stroke-linecap: butt; stroke-dashoffset: 0; stroke-linejoin: miter; stroke-miterlimit: 4; fill: rgb(187,189,203); fill-rule: nonzero; opacity: 1;" vector-effect="non-scaling-stroke"  transform=" translate(-1.25, -2)" d="M 0 4 L 0 0 L 2.5 0 L 2.5 4 z" stroke-linecap="round" />
</g>
    <g transform="matrix(1 0 0 1 -44.34 -20.43)" id="r_9aHZKq6lyxMzpr7R26V" clip-path="url(#CLIPPATH_7367)"  >
<clipPath id="CLIPPATH_7367" >
	<rect transform="matrix(1 0 0 1 -3.16 21.93)" id="clip0" x="-44.5" y="-59.5" rx="0" ry="0" width="89" height="119" />
</clipPath>
        <path style="stroke: none; stroke-width: 1; stroke-dasharray: none; stroke-linecap: butt; stroke-dashoffset: 0; stroke-linejoin: miter; stroke-miterlimit: 4; fill: rgb(187,189,203); fill-rule: nonzero; opacity: 1;" vector-effect="non-scaling-stroke"  transform=" translate(-47.66, -37.57)" d="M 46.4075 35.5676 L 46.4075 36.5675 L 47.4077 36.5675 L 47.4077 38.5677 L 46.4075 38.5677 L 46.4075 39.5676 L 48.9075 39.5676 L 48.9075 35.5676 L 46.4075 35.5676 Z" stroke-linecap="round" />
</g>
    <g transform="matrix(1 0 0 1 -44.34 -13.93)" id="zrDtVoZFTaHdC-4zfVNi9" clip-path="url(#CLIPPATH_7368)"  >
<clipPath id="CLIPPATH_7368" >
	<rect transform="matrix(1 0 0 1 -3.16 15.43)" id="clip0" x="-44.5" y="-59.5" rx="0" ry="0" width="89" height="119" />
</clipPath>
        <path style="stroke: none; stroke-width: 1; stroke-dasharray: none; stroke-linecap: butt; stroke-dashoffset: 0; stroke-linejoin: miter; stroke-miterlimit: 4; fill: rgb(187,189,203); fill-rule: nonzero; opacity: 1;" vector-effect="non-scaling-stroke"  transform=" translate(-47.66, -44.07)" d="M 46.4075 42.0676 L 46.4075 43.0678 L 47.4077 43.0678 L 47.4077 45.0678 L 46.4075 45.0678 L 46.4075 46.0676 L 48.9075 46.0676 L 48.9075 42.0676 L 46.4075 42.0676 Z" stroke-linecap="round" />
</g>
    <g transform="matrix(1 0 0 1 -44.34 -7.18)" id="oQ09YJOBDjzwO8H0oSryC" clip-path="url(#CLIPPATH_7369)"  >
<clipPath id="CLIPPATH_7369" >
	<rect transform="matrix(1 0 0 1 -3.16 8.68)" id="clip0" x="-44.5" y="-59.5" rx="0" ry="0" width="89" height="119" />
</clipPath>
        <path style="stroke: none; stroke-width: 1; stroke-dasharray: none; stroke-linecap: butt; stroke-dashoffset: 0; stroke-linejoin: miter; stroke-miterlimit: 4; fill: rgb(187,189,203); fill-rule: nonzero; opacity: 1;" vector-effect="non-scaling-stroke"  transform=" translate(-47.66, -50.82)" d="M 46.4075 48.5676 L 46.4075 49.6928 L 47.4077 49.6928 L 47.4077 51.9424 L 46.4075 51.9424 L 46.4075 53.0676 L 48.9075 53.0676 L 48.9075 48.5676 L 46.4075 48.5676 Z" stroke-linecap="round" />
</g>
    <g transform="matrix(1 0 0 1 -44.34 12.57)" id="m8T3l6vPwIG7D6ueP-ZhX"  >
<path style="stroke: none; stroke-width: 1; stroke-dasharray: none; stroke-linecap: butt; stroke-dashoffset: 0; stroke-linejoin: miter; stroke-miterlimit: 4; fill: rgb(187,189,203); fill-rule: nonzero; opacity: 1;" vector-effect="non-scaling-stroke"  transform=" translate(-1.25, -2)" d="M 0 4 L 0 0 L 2.5 0 L 2.5 4 z" stroke-linecap="round" />
</g>
    <g transform="matrix(1 0 0 1 -44.34 6.07)" id="wKixZle0ym6_wP_6IZ8Q5" clip-path="url(#CLIPPATH_7370)"  >
<clipPath id="CLIPPATH_7370" >
	<rect transform="matrix(1 0 0 1 -3.16 -4.57)" id="clip0" x="-44.5" y="-59.5" rx="0" ry="0" width="89" height="119" />
</clipPath>
        <path style="stroke: none; stroke-width: 1; stroke-dasharray: none; stroke-linecap: butt; stroke-dashoffset: 0; stroke-linejoin: miter; stroke-miterlimit: 4; fill: rgb(187,189,203); fill-rule: nonzero; opacity: 1;" vector-effect="non-scaling-stroke"  transform=" translate(-47.66, -64.07)" d="M 46.4075 62.0676 L 46.4075 63.0675 L 47.4077 63.0675 L 47.4077 65.0677 L 46.4075 65.0677 L 46.4075 66.0676 L 48.9075 66.0676 L 48.9075 62.0676 L 46.4075 62.0676 Z" stroke-linecap="round" />
</g>
    <g transform="matrix(1 0 0 1 -44.34 25.57)" id="6CWIVRK39TNypcFWej9EC"  >
<path style="stroke: none; stroke-width: 1; stroke-dasharray: none; stroke-linecap: butt; stroke-dashoffset: 0; stroke-linejoin: miter; stroke-miterlimit: 4; fill: rgb(187,189,203); fill-rule: nonzero; opacity: 1;" vector-effect="non-scaling-stroke"  transform=" translate(-1.25, -2)" d="M 0 4 L 0 0 L 2.5 0 L 2.5 4 z" stroke-linecap="round" />
</g>
    <g transform="matrix(1 0 0 1 -44.34 19.07)" id="--uY9MEFyF06B74TjtTK2" clip-path="url(#CLIPPATH_7371)"  >
<clipPath id="CLIPPATH_7371" >
	<rect transform="matrix(1 0 0 1 -3.16 -17.57)" id="clip0" x="-44.5" y="-59.5" rx="0" ry="0" width="89" height="119" />
</clipPath>
        <path style="stroke: none; stroke-width: 1; stroke-dasharray: none; stroke-linecap: butt; stroke-dashoffset: 0; stroke-linejoin: miter; stroke-miterlimit: 4; fill: rgb(187,189,203); fill-rule: nonzero; opacity: 1;" vector-effect="non-scaling-stroke"  transform=" translate(-47.66, -77.07)" d="M 46.4075 75.0676 L 46.4075 76.0675 L 47.4077 76.0675 L 47.4077 78.0675 L 46.4075 78.0675 L 46.4075 79.0676 L 48.9075 79.0676 L 48.9075 75.0676 L 46.4075 75.0676 Z" stroke-linecap="round" />
</g>
    <g transform="matrix(1 0 0 1 -44.34 38.57)" id="1j2ZLyD8wxeFW6_Ug5q6-"  >
<path style="stroke: none; stroke-width: 1; stroke-dasharray: none; stroke-linecap: butt; stroke-dashoffset: 0; stroke-linejoin: miter; stroke-miterlimit: 4; fill: rgb(187,189,203); fill-rule: nonzero; opacity: 1;" vector-effect="non-scaling-stroke"  transform=" translate(-1.25, -2)" d="M 0 4 L 0 0 L 2.5 0 L 2.5 4 z" stroke-linecap="round" />
</g>
    <g transform="matrix(1 0 0 1 -44.34 32.07)" id="KozE9EZHRBfGbXg9l6eh2" clip-path="url(#CLIPPATH_7372)"  >
<clipPath id="CLIPPATH_7372" >
	<rect transform="matrix(1 0 0 1 -3.16 -30.57)" id="clip0" x="-44.5" y="-59.5" rx="0" ry="0" width="89" height="119" />
</clipPath>
        <path style="stroke: none; stroke-width: 1; stroke-dasharray: none; stroke-linecap: butt; stroke-dashoffset: 0; stroke-linejoin: miter; stroke-miterlimit: 4; fill: rgb(187,189,203); fill-rule: nonzero; opacity: 1;" vector-effect="non-scaling-stroke"  transform=" translate(-47.66, -90.07)" d="M 46.4075 88.0676 L 46.4075 89.0678 L 47.4077 89.0678 L 47.4077 91.0678 L 46.4075 91.0678 L 46.4075 92.0676 L 48.9075 92.0676 L 48.9075 88.0676 L 46.4075 88.0676 Z" stroke-linecap="round" />
</g>
    <g transform="matrix(1 0 0 1 -44.34 51.82)" id="2gcVVHxj9xoAgP7BAiBt9"  >
<path style="stroke: none; stroke-width: 1; stroke-dasharray: none; stroke-linecap: butt; stroke-dashoffset: 0; stroke-linejoin: miter; stroke-miterlimit: 4; fill: rgb(187,189,203); fill-rule: nonzero; opacity: 1;" vector-effect="non-scaling-stroke"  transform=" translate(-1.25, -2.25)" d="M 0 4.5 L 0 0 L 2.5 0 L 2.5 4.5 z" stroke-linecap="round" />
</g>
    <g transform="matrix(1 0 0 1 -44.34 45.07)" id="s4LAPuj3EOsZoOvvwz5ZL" clip-path="url(#CLIPPATH_7373)"  >
<clipPath id="CLIPPATH_7373" >
	<rect transform="matrix(1 0 0 1 -3.16 -43.57)" id="clip0" x="-44.5" y="-59.5" rx="0" ry="0" width="89" height="119" />
</clipPath>
        <path style="stroke: none; stroke-width: 1; stroke-dasharray: none; stroke-linecap: butt; stroke-dashoffset: 0; stroke-linejoin: miter; stroke-miterlimit: 4; fill: rgb(187,189,203); fill-rule: nonzero; opacity: 1;" vector-effect="non-scaling-stroke"  transform=" translate(-47.66, -103.07)" d="M 46.4075 101.068 L 46.4075 102.067 L 47.4077 102.067 L 47.4077 104.067 L 46.4075 104.067 L 46.4075 105.068 L 48.9075 105.068 L 48.9075 101.068 L 46.4075 101.068 Z" stroke-linecap="round" />
</g>
    <g transform="matrix(1 0 0 1 -31.84 -32.43)" id="nmfro2dL4eV3_pVHQkgLl"  >
<path style="stroke: none; stroke-width: 1; stroke-dasharray: none; stroke-linecap: butt; stroke-dashoffset: 0; stroke-linejoin: miter; stroke-miterlimit: 4; fill: rgb(187,189,203); fill-rule: nonzero; opacity: 1;" vector-effect="non-scaling-stroke"  transform=" translate(-1.25, -2)" d="M 0 4 L 0 0 L 2.5 0 L 2.5 4 z" stroke-linecap="round" />
</g>
    <g transform="matrix(1 0 0 1 -31.84 -0.43)" id="rCbw9KycMaRNMbRDOifee"  >
<path style="stroke: none; stroke-width: 1; stroke-dasharray: none; stroke-linecap: butt; stroke-dashoffset: 0; stroke-linejoin: miter; stroke-miterlimit: 4; fill: rgb(187,189,203); fill-rule: nonzero; opacity: 1;" vector-effect="non-scaling-stroke"  transform=" translate(-1.25, -2)" d="M 0 4 L 0 0 L 2.5 0 L 2.5 4 z" stroke-linecap="round" />
</g>
    <g transform="matrix(1 0 0 1 -31.84 -20.43)" id="Ty-dGJdSDuZWYEEG-QUl7" clip-path="url(#CLIPPATH_7374)"  >
<clipPath id="CLIPPATH_7374" >
	<rect transform="matrix(1 0 0 1 -15.66 21.93)" id="clip0" x="-44.5" y="-59.5" rx="0" ry="0" width="89" height="119" />
</clipPath>
        <path style="stroke: none; stroke-width: 1; stroke-dasharray: none; stroke-linecap: butt; stroke-dashoffset: 0; stroke-linejoin: miter; stroke-miterlimit: 4; fill: rgb(187,189,203); fill-rule: nonzero; opacity: 1;" vector-effect="non-scaling-stroke"  transform=" translate(-60.16, -37.57)" d="M 58.9075 35.5676 L 58.9075 36.5675 L 59.9077 36.5675 L 59.9077 38.5677 L 58.9075 38.5677 L 58.9075 39.5676 L 61.4075 39.5676 L 61.4075 35.5676 L 58.9075 35.5676 Z" stroke-linecap="round" />
</g>
    <g transform="matrix(1 0 0 1 -31.84 -13.93)" id="QJxXX3M_gau6uTOZwa_SI" clip-path="url(#CLIPPATH_7375)"  >
<clipPath id="CLIPPATH_7375" >
	<rect transform="matrix(1 0 0 1 -15.66 15.43)" id="clip0" x="-44.5" y="-59.5" rx="0" ry="0" width="89" height="119" />
</clipPath>
        <path style="stroke: none; stroke-width: 1; stroke-dasharray: none; stroke-linecap: butt; stroke-dashoffset: 0; stroke-linejoin: miter; stroke-miterlimit: 4; fill: rgb(187,189,203); fill-rule: nonzero; opacity: 1;" vector-effect="non-scaling-stroke"  transform=" translate(-60.16, -44.07)" d="M 58.9075 42.0676 L 58.9075 43.0678 L 59.9077 43.0678 L 59.9077 45.0678 L 58.9075 45.0678 L 58.9075 46.0676 L 61.4075 46.0676 L 61.4075 42.0676 L 58.9075 42.0676 Z" stroke-linecap="round" />
</g>
    <g transform="matrix(1 0 0 1 -31.84 -7.18)" id="QLe_SdvcY-zdsb8INieFc" clip-path="url(#CLIPPATH_7376)"  >
<clipPath id="CLIPPATH_7376" >
	<rect transform="matrix(1 0 0 1 -15.66 8.68)" id="clip0" x="-44.5" y="-59.5" rx="0" ry="0" width="89" height="119" />
</clipPath>
        <path style="stroke: none; stroke-width: 1; stroke-dasharray: none; stroke-linecap: butt; stroke-dashoffset: 0; stroke-linejoin: miter; stroke-miterlimit: 4; fill: rgb(187,189,203); fill-rule: nonzero; opacity: 1;" vector-effect="non-scaling-stroke"  transform=" translate(-60.16, -50.82)" d="M 58.9075 48.5676 L 58.9075 49.6928 L 59.9077 49.6928 L 59.9077 51.9424 L 58.9075 51.9424 L 58.9075 53.0676 L 61.4075 53.0676 L 61.4075 48.5676 L 58.9075 48.5676 Z" stroke-linecap="round" />
</g>
    <g transform="matrix(1 0 0 1 -31.84 12.57)" id="wUIlKnnfhj7Ob7vxpjgiu"  >
<path style="stroke: none; stroke-width: 1; stroke-dasharray: none; stroke-linecap: butt; stroke-dashoffset: 0; stroke-linejoin: miter; stroke-miterlimit: 4; fill: rgb(187,189,203); fill-rule: nonzero; opacity: 1;" vector-effect="non-scaling-stroke"  transform=" translate(-1.25, -2)" d="M 0 4 L 0 0 L 2.5 0 L 2.5 4 z" stroke-linecap="round" />
</g>
    <g transform="matrix(1 0 0 1 -31.84 6.07)" id="rQeS6cRIhwTh8Le1_olZc" clip-path="url(#CLIPPATH_7377)"  >
<clipPath id="CLIPPATH_7377" >
	<rect transform="matrix(1 0 0 1 -15.66 -4.57)" id="clip0" x="-44.5" y="-59.5" rx="0" ry="0" width="89" height="119" />
</clipPath>
        <path style="stroke: none; stroke-width: 1; stroke-dasharray: none; stroke-linecap: butt; stroke-dashoffset: 0; stroke-linejoin: miter; stroke-miterlimit: 4; fill: rgb(187,189,203); fill-rule: nonzero; opacity: 1;" vector-effect="non-scaling-stroke"  transform=" translate(-60.16, -64.07)" d="M 58.9075 62.0676 L 58.9075 63.0675 L 59.9077 63.0675 L 59.9077 65.0677 L 58.9075 65.0677 L 58.9075 66.0676 L 61.4075 66.0676 L 61.4075 62.0676 L 58.9075 62.0676 Z" stroke-linecap="round" />
</g>
    <g transform="matrix(1 0 0 1 -31.84 25.57)" id="xC4pMKIv214J7ijHukqBI"  >
<path style="stroke: none; stroke-width: 1; stroke-dasharray: none; stroke-linecap: butt; stroke-dashoffset: 0; stroke-linejoin: miter; stroke-miterlimit: 4; fill: rgb(187,189,203); fill-rule: nonzero; opacity: 1;" vector-effect="non-scaling-stroke"  transform=" translate(-1.25, -2)" d="M 0 4 L 0 0 L 2.5 0 L 2.5 4 z" stroke-linecap="round" />
</g>
    <g transform="matrix(1 0 0 1 -31.84 19.07)" id="26FIi90EBEf5q4_JJGLzz" clip-path="url(#CLIPPATH_7378)"  >
<clipPath id="CLIPPATH_7378" >
	<rect transform="matrix(1 0 0 1 -15.66 -17.57)" id="clip0" x="-44.5" y="-59.5" rx="0" ry="0" width="89" height="119" />
</clipPath>
        <path style="stroke: none; stroke-width: 1; stroke-dasharray: none; stroke-linecap: butt; stroke-dashoffset: 0; stroke-linejoin: miter; stroke-miterlimit: 4; fill: rgb(187,189,203); fill-rule: nonzero; opacity: 1;" vector-effect="non-scaling-stroke"  transform=" translate(-60.16, -77.07)" d="M 58.9075 75.0676 L 58.9075 76.0675 L 59.9077 76.0675 L 59.9077 78.0675 L 58.9075 78.0675 L 58.9075 79.0676 L 61.4075 79.0676 L 61.4075 75.0676 L 58.9075 75.0676 Z" stroke-linecap="round" />
</g>
    <g transform="matrix(1 0 0 1 -31.84 38.57)" id="VreZ3yqZnUGe-9MjKps1x"  >
<path style="stroke: none; stroke-width: 1; stroke-dasharray: none; stroke-linecap: butt; stroke-dashoffset: 0; stroke-linejoin: miter; stroke-miterlimit: 4; fill: rgb(187,189,203); fill-rule: nonzero; opacity: 1;" vector-effect="non-scaling-stroke"  transform=" translate(-1.25, -2)" d="M 0 4 L 0 0 L 2.5 0 L 2.5 4 z" stroke-linecap="round" />
</g>
    <g transform="matrix(1 0 0 1 -31.84 32.07)" id="ru4QLDNsd0Ql94HK8KwAM" clip-path="url(#CLIPPATH_7379)"  >
<clipPath id="CLIPPATH_7379" >
	<rect transform="matrix(1 0 0 1 -15.66 -30.57)" id="clip0" x="-44.5" y="-59.5" rx="0" ry="0" width="89" height="119" />
</clipPath>
        <path style="stroke: none; stroke-width: 1; stroke-dasharray: none; stroke-linecap: butt; stroke-dashoffset: 0; stroke-linejoin: miter; stroke-miterlimit: 4; fill: rgb(187,189,203); fill-rule: nonzero; opacity: 1;" vector-effect="non-scaling-stroke"  transform=" translate(-60.16, -90.07)" d="M 58.9075 88.0676 L 58.9075 89.0678 L 59.9077 89.0678 L 59.9077 91.0678 L 58.9075 91.0678 L 58.9075 92.0676 L 61.4075 92.0676 L 61.4075 88.0676 L 58.9075 88.0676 Z" stroke-linecap="round" />
</g>
    <g transform="matrix(1 0 0 1 -31.84 51.82)" id="OOoqC8iS3QPFA9xsPKXpe"  >
<path style="stroke: none; stroke-width: 1; stroke-dasharray: none; stroke-linecap: butt; stroke-dashoffset: 0; stroke-linejoin: miter; stroke-miterlimit: 4; fill: rgb(187,189,203); fill-rule: nonzero; opacity: 1;" vector-effect="non-scaling-stroke"  transform=" translate(-1.25, -2.25)" d="M 0 4.5 L 0 0 L 2.5 0 L 2.5 4.5 z" stroke-linecap="round" />
</g>
    <g transform="matrix(1 0 0 1 -31.84 45.07)" id="zNuecThW_issAyIQjDG1n" clip-path="url(#CLIPPATH_7380)"  >
<clipPath id="CLIPPATH_7380" >
	<rect transform="matrix(1 0 0 1 -15.66 -43.57)" id="clip0" x="-44.5" y="-59.5" rx="0" ry="0" width="89" height="119" />
</clipPath>
        <path style="stroke: none; stroke-width: 1; stroke-dasharray: none; stroke-linecap: butt; stroke-dashoffset: 0; stroke-linejoin: miter; stroke-miterlimit: 4; fill: rgb(187,189,203); fill-rule: nonzero; opacity: 1;" vector-effect="non-scaling-stroke"  transform=" translate(-60.16, -103.07)" d="M 58.9075 101.068 L 58.9075 102.067 L 59.9077 102.067 L 59.9077 104.067 L 58.9075 104.067 L 58.9075 105.068 L 61.4075 105.068 L 61.4075 101.068 L 58.9075 101.068 Z" stroke-linecap="round" />
</g>
    <g transform="matrix(1 0 0 1 -80.34 -0.43)" id="vOlvtS97dtDbRtwk612Dz" clip-path="url(#CLIPPATH_7381)"  >
<clipPath id="CLIPPATH_7381" >
	<rect transform="matrix(1 0 0 1 32.84 1.93)" id="clip0" x="-44.5" y="-59.5" rx="0" ry="0" width="89" height="119" />
</clipPath>
        <path style="stroke: none; stroke-width: 1; stroke-dasharray: none; stroke-linecap: butt; stroke-dashoffset: 0; stroke-linejoin: miter; stroke-miterlimit: 4; fill: rgb(187,189,203); fill-rule: nonzero; opacity: 1;" vector-effect="non-scaling-stroke"  transform=" translate(-11.66, -57.57)" d="M 10.4075 55.5676 L 10.4075 56.5675 L 11.4073 56.5675 L 11.4073 58.5675 L 10.4075 58.5675 L 10.4075 59.5676 L 12.9075 59.5676 L 12.9075 55.5676 L 10.4075 55.5676 Z" stroke-linecap="round" />
</g>
    <g transform="matrix(1 0 0 1 -80.34 25.07)" id="apeNT0Ne2yHFV2_7I8omK" clip-path="url(#CLIPPATH_7382)"  >
<clipPath id="CLIPPATH_7382" >
	<rect transform="matrix(1 0 0 1 32.84 -23.57)" id="clip0" x="-44.5" y="-59.5" rx="0" ry="0" width="89" height="119" />
</clipPath>
        <path style="stroke: none; stroke-width: 1; stroke-dasharray: none; stroke-linecap: butt; stroke-dashoffset: 0; stroke-linejoin: miter; stroke-miterlimit: 4; fill: rgb(187,189,203); fill-rule: nonzero; opacity: 1;" vector-effect="non-scaling-stroke"  transform=" translate(-11.66, -83.07)" d="M 10.4075 81.0676 L 10.4075 82.0675 L 11.4073 82.0675 L 11.4073 84.0677 L 10.4075 84.0677 L 10.4075 85.0676 L 12.9075 85.0676 L 12.9075 81.0676 L 10.4075 81.0676 Z" stroke-linecap="round" />
</g>
    <g transform="matrix(1 0 0 1 -80.34 31.57)" id="jFqaCkezO_8MQeZvP485r" clip-path="url(#CLIPPATH_7383)"  >
<clipPath id="CLIPPATH_7383" >
	<rect transform="matrix(1 0 0 1 32.84 -30.07)" id="clip0" x="-44.5" y="-59.5" rx="0" ry="0" width="89" height="119" />
</clipPath>
        <path style="stroke: none; stroke-width: 1; stroke-dasharray: none; stroke-linecap: butt; stroke-dashoffset: 0; stroke-linejoin: miter; stroke-miterlimit: 4; fill: rgb(187,189,203); fill-rule: nonzero; opacity: 1;" vector-effect="non-scaling-stroke"  transform=" translate(-11.66, -89.57)" d="M 10.4075 87.5676 L 10.4075 88.5678 L 11.4073 88.5678 L 11.4073 90.5678 L 10.4075 90.5678 L 10.4075 91.5676 L 12.9075 91.5676 L 12.9075 87.5676 L 10.4075 87.5676 Z" stroke-linecap="round" />
</g>
    <g transform="matrix(1 0 0 1 -80.34 44.57)" id="CzYtm_iF0yFY8yDmqaurc" clip-path="url(#CLIPPATH_7384)"  >
<clipPath id="CLIPPATH_7384" >
	<rect transform="matrix(1 0 0 1 32.84 -43.07)" id="clip0" x="-44.5" y="-59.5" rx="0" ry="0" width="89" height="119" />
</clipPath>
        <path style="stroke: none; stroke-width: 1; stroke-dasharray: none; stroke-linecap: butt; stroke-dashoffset: 0; stroke-linejoin: miter; stroke-miterlimit: 4; fill: rgb(187,189,203); fill-rule: nonzero; opacity: 1;" vector-effect="non-scaling-stroke"  transform=" translate(-11.66, -102.57)" d="M 10.4075 100.568 L 10.4075 101.568 L 11.4073 101.568 L 11.4073 103.568 L 10.4075 103.568 L 10.4075 104.568 L 12.9075 104.568 L 12.9075 100.568 L 10.4075 100.568 Z" stroke-linecap="round" />
</g>
    <g transform="matrix(1 0 0 1 -54.34 -31.43)" id="zMSOIEEZVSUysPevBhi1N"  >
<path style="stroke: none; stroke-width: 1; stroke-dasharray: none; stroke-linecap: butt; stroke-dashoffset: 0; stroke-linejoin: miter; stroke-miterlimit: 4; fill: rgb(187,189,203); fill-rule: nonzero; opacity: 1;" vector-effect="non-scaling-stroke"  transform=" translate(-1.25, -2)" d="M 0 4 L 0 0 L 2.5 0 L 2.5 4 z" stroke-linecap="round" />
</g>
    <g transform="matrix(1 0 0 1 -54.34 -24.93)" id="YKGU1o6K-JVVGdtfWiFkX"  >
<path style="stroke: none; stroke-width: 1; stroke-dasharray: none; stroke-linecap: butt; stroke-dashoffset: 0; stroke-linejoin: miter; stroke-miterlimit: 4; fill: rgb(187,189,203); fill-rule: nonzero; opacity: 1;" vector-effect="non-scaling-stroke"  transform=" translate(-1.25, -2)" d="M 0 4 L 0 0 L 2.5 0 L 2.5 4 z" stroke-linecap="round" />
</g>
    <g transform="matrix(1 0 0 1 -54.84 -19.68)" id="-vVD94xQo4AurjkkbQW4m"  >
<path style="stroke: none; stroke-width: 1; stroke-dasharray: none; stroke-linecap: butt; stroke-dashoffset: 0; stroke-linejoin: miter; stroke-miterlimit: 4; fill: rgb(187,189,203); fill-rule: nonzero; opacity: 1;" vector-effect="non-scaling-stroke"  transform=" translate(-1.75, -0.25)" d="M 0 0.5 L 0 0 L 3.5 0 L 3.5 0.5 z" stroke-linecap="round" />
</g>
    <g transform="matrix(1 0 0 1 -54.84 12.82)" id="dql52rycDXL3b45hNLD-B"  >
<path style="stroke: none; stroke-width: 1; stroke-dasharray: none; stroke-linecap: butt; stroke-dashoffset: 0; stroke-linejoin: miter; stroke-miterlimit: 4; fill: rgb(187,189,203); fill-rule: nonzero; opacity: 1;" vector-effect="non-scaling-stroke"  transform=" translate(-1.75, -0.25)" d="M 0 0.5 L 0 0 L 3.5 0 L 3.5 0.5 z" stroke-linecap="round" />
</g>
    <g transform="matrix(1 0 0 1 -54.84 18.32)" id="_Jxj-2F8z6CVszoRYtFH_"  >
<path style="stroke: none; stroke-width: 1; stroke-dasharray: none; stroke-linecap: butt; stroke-dashoffset: 0; stroke-linejoin: miter; stroke-miterlimit: 4; fill: rgb(187,189,203); fill-rule: nonzero; opacity: 1;" vector-effect="non-scaling-stroke"  transform=" translate(-1.75, -0.25)" d="M 0 0.5 L 0 0 L 3.5 0 L 3.5 0.5 z" stroke-linecap="round" />
</g>
    <g transform="matrix(1 0 0 1 -54.34 -13.43)" id="Ka66zZEb7PMp8ZIuX5rUD" clip-path="url(#CLIPPATH_7385)"  >
<clipPath id="CLIPPATH_7385" >
	<rect transform="matrix(1 0 0 1 6.84 14.93)" id="clip0" x="-44.5" y="-59.5" rx="0" ry="0" width="89" height="119" />
</clipPath>
        <path style="stroke: none; stroke-width: 1; stroke-dasharray: none; stroke-linecap: butt; stroke-dashoffset: 0; stroke-linejoin: miter; stroke-miterlimit: 4; fill: rgb(187,189,203); fill-rule: nonzero; opacity: 1;" vector-effect="non-scaling-stroke"  transform=" translate(-37.66, -44.57)" d="M 36.4075 42.5676 L 36.4075 43.5675 L 37.4073 43.5675 L 37.4073 45.5677 L 36.4075 45.5677 L 36.4075 46.5676 L 38.9075 46.5676 L 38.9075 42.5676 L 36.4075 42.5676 Z" stroke-linecap="round" />
</g>
    <g transform="matrix(1 0 0 1 -54.34 -0.43)" id="7wPUXrsA26Y5pmGKlbxqc" clip-path="url(#CLIPPATH_7386)"  >
<clipPath id="CLIPPATH_7386" >
	<rect transform="matrix(1 0 0 1 6.84 1.93)" id="clip0" x="-44.5" y="-59.5" rx="0" ry="0" width="89" height="119" />
</clipPath>
        <path style="stroke: none; stroke-width: 1; stroke-dasharray: none; stroke-linecap: butt; stroke-dashoffset: 0; stroke-linejoin: miter; stroke-miterlimit: 4; fill: rgb(187,189,203); fill-rule: nonzero; opacity: 1;" vector-effect="non-scaling-stroke"  transform=" translate(-37.66, -57.57)" d="M 36.4075 55.5676 L 36.4075 56.5675 L 37.4073 56.5675 L 37.4073 58.5675 L 36.4075 58.5675 L 36.4075 59.5676 L 38.9075 59.5676 L 38.9075 55.5676 L 36.4075 55.5676 Z" stroke-linecap="round" />
</g>
    <g transform="matrix(1 0 0 1 -54.34 25.07)" id="0pfh43dZhID0pGOsw37U6" clip-path="url(#CLIPPATH_7387)"  >
<clipPath id="CLIPPATH_7387" >
	<rect transform="matrix(1 0 0 1 6.84 -23.57)" id="clip0" x="-44.5" y="-59.5" rx="0" ry="0" width="89" height="119" />
</clipPath>
        <path style="stroke: none; stroke-width: 1; stroke-dasharray: none; stroke-linecap: butt; stroke-dashoffset: 0; stroke-linejoin: miter; stroke-miterlimit: 4; fill: rgb(187,189,203); fill-rule: nonzero; opacity: 1;" vector-effect="non-scaling-stroke"  transform=" translate(-37.66, -83.07)" d="M 36.4075 81.0676 L 36.4075 82.0675 L 37.4073 82.0675 L 37.4073 84.0677 L 36.4075 84.0677 L 36.4075 85.0676 L 38.9075 85.0676 L 38.9075 81.0676 L 36.4075 81.0676 Z" stroke-linecap="round" />
</g>
    <g transform="matrix(1 0 0 1 -25.34 12.57)" id="17_Hwect8Yom8l-FE51PT"  >
<path style="stroke: none; stroke-width: 1; stroke-dasharray: none; stroke-linecap: butt; stroke-dashoffset: 0; stroke-linejoin: miter; stroke-miterlimit: 4; fill: rgb(187,189,203); fill-rule: nonzero; opacity: 1;" vector-effect="non-scaling-stroke"  transform=" translate(-1.25, -2)" d="M 0 4 L 0 0 L 2.5 0 L 2.5 4 z" stroke-linecap="round" />
</g>
    <g transform="matrix(1 0 0 1 -25.34 19.07)" id="Ucb_A6MX92wC1Kxaa_XWA"  >
<path style="stroke: none; stroke-width: 1; stroke-dasharray: none; stroke-linecap: butt; stroke-dashoffset: 0; stroke-linejoin: miter; stroke-miterlimit: 4; fill: rgb(187,189,203); fill-rule: nonzero; opacity: 1;" vector-effect="non-scaling-stroke"  transform=" translate(-1.25, -2)" d="M 0 4 L 0 0 L 2.5 0 L 2.5 4 z" stroke-linecap="round" />
</g>
    <g transform="matrix(1 0 0 1 -25.84 24.32)" id="ywv9OdZeAaFQgUdHAcnRm"  >
<path style="stroke: none; stroke-width: 1; stroke-dasharray: none; stroke-linecap: butt; stroke-dashoffset: 0; stroke-linejoin: miter; stroke-miterlimit: 4; fill: rgb(187,189,203); fill-rule: nonzero; opacity: 1;" vector-effect="non-scaling-stroke"  transform=" translate(-1.75, -0.25)" d="M 0 0.5 L 0 0 L 3.5 0 L 3.5 0.5 z" stroke-linecap="round" />
</g>
    <g transform="matrix(1 0 0 1 -25.34 30.57)" id="yhqTRbtFCKXb-h-L8b1_L" clip-path="url(#CLIPPATH_7388)"  >
<clipPath id="CLIPPATH_7388" >
	<rect transform="matrix(1 0 0 1 -22.16 -29.07)" id="clip0" x="-44.5" y="-59.5" rx="0" ry="0" width="89" height="119" />
</clipPath>
        <path style="stroke: none; stroke-width: 1; stroke-dasharray: none; stroke-linecap: butt; stroke-dashoffset: 0; stroke-linejoin: miter; stroke-miterlimit: 4; fill: rgb(187,189,203); fill-rule: nonzero; opacity: 1;" vector-effect="non-scaling-stroke"  transform=" translate(-66.66, -88.57)" d="M 65.4075 86.5676 L 65.4075 87.5675 L 66.4073 87.5675 L 66.4073 89.5675 L 65.4075 89.5675 L 65.4075 90.5676 L 67.9075 90.5676 L 67.9075 86.5676 L 65.4075 86.5676 Z" stroke-linecap="round" />
</g>
    <g transform="matrix(1 0 0 1 -25.34 43.07)" id="kwefK18p89-OBPcM_ClN1" clip-path="url(#CLIPPATH_7389)"  >
<clipPath id="CLIPPATH_7389" >
	<rect transform="matrix(1 0 0 1 -22.16 -41.57)" id="clip0" x="-44.5" y="-59.5" rx="0" ry="0" width="89" height="119" />
</clipPath>
        <path style="stroke: none; stroke-width: 1; stroke-dasharray: none; stroke-linecap: butt; stroke-dashoffset: 0; stroke-linejoin: miter; stroke-miterlimit: 4; fill: rgb(187,189,203); fill-rule: nonzero; opacity: 1;" vector-effect="non-scaling-stroke"  transform=" translate(-66.66, -101.07)" d="M 65.4075 99.0676 L 65.4075 100.068 L 66.4073 100.068 L 66.4073 102.067 L 65.4075 102.067 L 65.4075 103.068 L 67.9075 103.068 L 67.9075 99.0676 L 65.4075 99.0676 Z" stroke-linecap="round" />
</g>
    <g transform="matrix(1 0 0 1 -17.34 -31.43)" id="rwrYPneMkmPtaV0uMl--j"  >
<path style="stroke: none; stroke-width: 1; stroke-dasharray: none; stroke-linecap: butt; stroke-dashoffset: 0; stroke-linejoin: miter; stroke-miterlimit: 4; fill: rgb(187,189,203); fill-rule: nonzero; opacity: 1;" vector-effect="non-scaling-stroke"  transform=" translate(-1.25, -2)" d="M 0 4 L 0 0 L 2.5 0 L 2.5 4 z" stroke-linecap="round" />
</g>
    <g transform="matrix(1 0 0 1 -17.34 -24.93)" id="mZfCLosgmN_QKxPr9bV5i"  >
<path style="stroke: none; stroke-width: 1; stroke-dasharray: none; stroke-linecap: butt; stroke-dashoffset: 0; stroke-linejoin: miter; stroke-miterlimit: 4; fill: rgb(187,189,203); fill-rule: nonzero; opacity: 1;" vector-effect="non-scaling-stroke"  transform=" translate(-1.25, -2)" d="M 0 4 L 0 0 L 2.5 0 L 2.5 4 z" stroke-linecap="round" />
</g>
    <g transform="matrix(1 0 0 1 -17.34 38.07)" id="dcm4DrbFuJNLiS1FFeHhA"  >
<path style="stroke: none; stroke-width: 1; stroke-dasharray: none; stroke-linecap: butt; stroke-dashoffset: 0; stroke-linejoin: miter; stroke-miterlimit: 4; fill: rgb(187,189,203); fill-rule: nonzero; opacity: 1;" vector-effect="non-scaling-stroke"  transform=" translate(-1.25, -2)" d="M 0 4 L 0 0 L 2.5 0 L 2.5 4 z" stroke-linecap="round" />
</g>
    <g transform="matrix(1 0 0 1 -17.34 51.32)" id="9iWvNO7b0JH51kKjEkG3C"  >
<path style="stroke: none; stroke-width: 1; stroke-dasharray: none; stroke-linecap: butt; stroke-dashoffset: 0; stroke-linejoin: miter; stroke-miterlimit: 4; fill: rgb(187,189,203); fill-rule: nonzero; opacity: 1;" vector-effect="non-scaling-stroke"  transform=" translate(-1.25, -2.25)" d="M 0 4.5 L 0 0 L 2.5 0 L 2.5 4.5 z" stroke-linecap="round" />
</g>
    <g transform="matrix(1 0 0 1 -17.84 -19.68)" id="ejB2Je1U7GvME-LTDpjwh"  >
<path style="stroke: none; stroke-width: 1; stroke-dasharray: none; stroke-linecap: butt; stroke-dashoffset: 0; stroke-linejoin: miter; stroke-miterlimit: 4; fill: rgb(187,189,203); fill-rule: nonzero; opacity: 1;" vector-effect="non-scaling-stroke"  transform=" translate(-1.75, -0.25)" d="M 0 0.5 L 0 0 L 3.5 0 L 3.5 0.5 z" stroke-linecap="round" />
</g>
    <g transform="matrix(1 0 0 1 -17.84 12.82)" id="k-OeKFMLjWG8jRapbMZ0n"  >
<path style="stroke: none; stroke-width: 1; stroke-dasharray: none; stroke-linecap: butt; stroke-dashoffset: 0; stroke-linejoin: miter; stroke-miterlimit: 4; fill: rgb(187,189,203); fill-rule: nonzero; opacity: 1;" vector-effect="non-scaling-stroke"  transform=" translate(-1.75, -0.25)" d="M 0 0.5 L 0 0 L 3.5 0 L 3.5 0.5 z" stroke-linecap="round" />
</g>
    <g transform="matrix(1 0 0 1 -17.84 18.32)" id="vYq9NTsbY7E0Uh3yMPEqx"  >
<path style="stroke: none; stroke-width: 1; stroke-dasharray: none; stroke-linecap: butt; stroke-dashoffset: 0; stroke-linejoin: miter; stroke-miterlimit: 4; fill: rgb(187,189,203); fill-rule: nonzero; opacity: 1;" vector-effect="non-scaling-stroke"  transform=" translate(-1.75, -0.25)" d="M 0 0.5 L 0 0 L 3.5 0 L 3.5 0.5 z" stroke-linecap="round" />
</g>
    <g transform="matrix(1 0 0 1 -17.34 -13.43)" id="WS0XHhZQ0UTNkYpxSpRD8" clip-path="url(#CLIPPATH_7390)"  >
<clipPath id="CLIPPATH_7390" >
	<rect transform="matrix(1 0 0 1 -30.16 14.93)" id="clip0" x="-44.5" y="-59.5" rx="0" ry="0" width="89" height="119" />
</clipPath>
        <path style="stroke: none; stroke-width: 1; stroke-dasharray: none; stroke-linecap: butt; stroke-dashoffset: 0; stroke-linejoin: miter; stroke-miterlimit: 4; fill: rgb(187,189,203); fill-rule: nonzero; opacity: 1;" vector-effect="non-scaling-stroke"  transform=" translate(-74.66, -44.57)" d="M 73.4075 42.5676 L 73.4075 43.5675 L 74.4077 43.5675 L 74.4077 45.5677 L 73.4075 45.5677 L 73.4075 46.5676 L 75.9075 46.5676 L 75.9075 42.5676 L 73.4075 42.5676 Z" stroke-linecap="round" />
</g>
    <g transform="matrix(1 0 0 1 -17.34 -0.43)" id="Z8NaBfmT6Ns2VOrk-LM40" clip-path="url(#CLIPPATH_7391)"  >
<clipPath id="CLIPPATH_7391" >
	<rect transform="matrix(1 0 0 1 -30.16 1.93)" id="clip0" x="-44.5" y="-59.5" rx="0" ry="0" width="89" height="119" />
</clipPath>
        <path style="stroke: none; stroke-width: 1; stroke-dasharray: none; stroke-linecap: butt; stroke-dashoffset: 0; stroke-linejoin: miter; stroke-miterlimit: 4; fill: rgb(187,189,203); fill-rule: nonzero; opacity: 1;" vector-effect="non-scaling-stroke"  transform=" translate(-74.66, -57.57)" d="M 73.4075 55.5676 L 73.4075 56.5675 L 74.4077 56.5675 L 74.4077 58.5675 L 73.4075 58.5675 L 73.4075 59.5676 L 75.9075 59.5676 L 75.9075 55.5676 L 73.4075 55.5676 Z" stroke-linecap="round" />
</g>
    <g transform="matrix(1 0 0 1 -17.34 25.07)" id="IB17jKnje7dsQByQP4wqM" clip-path="url(#CLIPPATH_7392)"  >
<clipPath id="CLIPPATH_7392" >
	<rect transform="matrix(1 0 0 1 -30.16 -23.57)" id="clip0" x="-44.5" y="-59.5" rx="0" ry="0" width="89" height="119" />
</clipPath>
        <path style="stroke: none; stroke-width: 1; stroke-dasharray: none; stroke-linecap: butt; stroke-dashoffset: 0; stroke-linejoin: miter; stroke-miterlimit: 4; fill: rgb(187,189,203); fill-rule: nonzero; opacity: 1;" vector-effect="non-scaling-stroke"  transform=" translate(-74.66, -83.07)" d="M 73.4075 81.0676 L 73.4075 82.0675 L 74.4077 82.0675 L 74.4077 84.0677 L 73.4075 84.0677 L 73.4075 85.0676 L 75.9075 85.0676 L 75.9075 81.0676 L 73.4075 81.0676 Z" stroke-linecap="round" />
</g>
    <g transform="matrix(1 0 0 1 -17.34 31.57)" id="INlIeCvABF3x2aUNh3ItH" clip-path="url(#CLIPPATH_7393)"  >
<clipPath id="CLIPPATH_7393" >
	<rect transform="matrix(1 0 0 1 -30.16 -30.07)" id="clip0" x="-44.5" y="-59.5" rx="0" ry="0" width="89" height="119" />
</clipPath>
        <path style="stroke: none; stroke-width: 1; stroke-dasharray: none; stroke-linecap: butt; stroke-dashoffset: 0; stroke-linejoin: miter; stroke-miterlimit: 4; fill: rgb(187,189,203); fill-rule: nonzero; opacity: 1;" vector-effect="non-scaling-stroke"  transform=" translate(-74.66, -89.57)" d="M 73.4075 87.5676 L 73.4075 88.5678 L 74.4077 88.5678 L 74.4077 90.5678 L 73.4075 90.5678 L 73.4075 91.5676 L 75.9075 91.5676 L 75.9075 87.5676 L 73.4075 87.5676 Z" stroke-linecap="round" />
</g>
    <g transform="matrix(1 0 0 1 -17.34 44.57)" id="6MrqyvVHCVwpEORF0G_7n" clip-path="url(#CLIPPATH_7394)"  >
<clipPath id="CLIPPATH_7394" >
	<rect transform="matrix(1 0 0 1 -30.16 -43.07)" id="clip0" x="-44.5" y="-59.5" rx="0" ry="0" width="89" height="119" />
</clipPath>
        <path style="stroke: none; stroke-width: 1; stroke-dasharray: none; stroke-linecap: butt; stroke-dashoffset: 0; stroke-linejoin: miter; stroke-miterlimit: 4; fill: rgb(187,189,203); fill-rule: nonzero; opacity: 1;" vector-effect="non-scaling-stroke"  transform=" translate(-74.66, -102.57)" d="M 73.4075 100.568 L 73.4075 101.568 L 74.4077 101.568 L 74.4077 103.568 L 73.4075 103.568 L 73.4075 104.568 L 75.9075 104.568 L 75.9075 100.568 L 73.4075 100.568 Z" stroke-linecap="round" />
</g>
    <g transform="matrix(1 0 0 1 -74.25 -45.5)" id="mcsYYz7ZMBlT8Do5MkD2S" clip-path="url(#CLIPPATH_7395)"  >
<clipPath id="CLIPPATH_7395" >
	<rect transform="matrix(1 0 0 1 26.75 47)" id="clip0" x="-44.5" y="-59.5" rx="0" ry="0" width="89" height="119" />
</clipPath>
        <path style="stroke: none; stroke-width: 1; stroke-dasharray: none; stroke-linecap: butt; stroke-dashoffset: 0; stroke-linejoin: miter; stroke-miterlimit: 4; fill: rgb(44,58,73); fill-rule: evenodd; opacity: 1;" vector-effect="non-scaling-stroke"  transform=" translate(-17.75, -12.5)" d="M 26.75 12.5 C 26.75 15.1125 24.59 17.25 21.95 17.25 C 19.97 17.25 18.23 16.0625 17.51 14.2812 L 12.95 14.2812 L 12.95 14.875 C 12.95 15.1719 12.65 15.4688 12.35 15.4688 L 10.55 15.4688 C 10.31 15.4688 10.13 15.35 10.01 15.1719 L 8.81 12.7969 C 8.75 12.6781 8.75 12.6188 8.75 12.5 C 8.75 12.3812 8.81 12.2031 8.93 12.0844 L 10.13 10.8969 C 10.25 10.7781 10.37 10.7188 10.55 10.7188 L 17.51 10.7188 C 18.23 8.9375 19.97 7.75 21.95 7.75 C 24.59 7.75 26.75 9.8875 26.75 12.5 Z M 23.75 12.5 C 23.75 11.5083 22.9917 10.75 22 10.75 C 21.0667 10.75 20.25 11.5083 20.25 12.5 C 20.25 13.4917 21.0667 14.25 22 14.25 C 22.9917 14.25 23.75 13.4917 23.75 12.5 Z" stroke-linecap="round" />
</g>
    <g transform="matrix(1 0 0 1 -74.25 -45.5)" id="re-j5V0mpNItgmjE3Ithf" clip-path="url(#CLIPPATH_7396)"  >
<clipPath id="CLIPPATH_7396" >
	<rect transform="matrix(1 0 0 1 26.75 47)" id="clip0" x="-44.5" y="-59.5" rx="0" ry="0" width="89" height="119" />
</clipPath>
        <path style="stroke: none; stroke-width: 1; stroke-dasharray: none; stroke-linecap: butt; stroke-dashoffset: 0; stroke-linejoin: miter; stroke-miterlimit: 4; fill: rgb(242,242,242); fill-rule: nonzero; opacity: 1;" vector-effect="non-scaling-stroke"  transform=" translate(-17.75, -12.5)" d="M 17.51 14.2812 L 18.4371 13.9065 L 18.1844 13.2812 L 17.51 13.2812 L 17.51 14.2812 Z M 12.95 14.2812 L 12.95 13.2812 L 11.95 13.2812 L 11.95 14.2812 L 12.95 14.2812 Z M 10.01 15.1719 L 9.11746 15.6228 L 9.14568 15.6787 L 9.18065 15.7306 L 10.01 15.1719 Z M 8.81 12.7969 L 7.91746 13.2478 L 7.91746 13.2478 L 8.81 12.7969 Z M 8.93 12.0844 L 9.63339 12.7952 L 9.6334 12.7952 L 8.93 12.0844 Z M 10.13 10.8969 L 9.42661 10.1861 L 9.4266 10.1861 L 10.13 10.8969 Z M 17.51 10.7188 L 17.51 11.7188 L 18.1844 11.7188 L 18.4371 11.0935 L 17.51 10.7188 Z M 21.95 18.25 C 25.1324 18.25 27.75 15.6746 27.75 12.5 L 25.75 12.5 C 25.75 14.5504 24.0476 16.25 21.95 16.25 L 21.95 18.25 Z M 16.5829 14.656 C 17.4564 16.817 19.5645 18.25 21.95 18.25 L 21.95 16.25 C 20.3755 16.25 19.0036 15.308 18.4371 13.9065 L 16.5829 14.656 Z M 12.95 15.2812 L 17.51 15.2812 L 17.51 13.2812 L 12.95 13.2812 L 12.95 15.2812 Z M 13.95 14.875 L 13.95 14.2812 L 11.95 14.2812 L 11.95 14.875 L 13.95 14.875 Z M 12.35 16.4688 C 12.8215 16.4688 13.212 16.2452 13.4659 15.994 C 13.7191 15.7434 13.95 15.3524 13.95 14.875 L 11.95 14.875 C 11.95 14.6945 12.0309 14.6003 12.0591 14.5724 C 12.088 14.5438 12.1785 14.4688 12.35 14.4688 L 12.35 16.4688 Z M 10.55 16.4688 L 12.35 16.4688 L 12.35 14.4688 L 10.55 14.4688 L 10.55 16.4688 Z M 9.18065 15.7306 C 9.4564 16.1399 9.92688 16.4688 10.55 16.4688 L 10.55 14.4688 C 10.6018 14.4688 10.6698 14.4834 10.7349 14.521 C 10.7958 14.5562 10.8276 14.5958 10.8394 14.6131 L 9.18065 15.7306 Z M 7.91746 13.2478 L 9.11746 15.6228 L 10.9025 14.7209 L 9.70254 12.3459 L 7.91746 13.2478 Z M 7.75 12.5 C 7.75 12.5395 7.74738 12.672 7.77139 12.8145 C 7.7996 12.982 7.8545 13.1232 7.91746 13.2478 L 9.70254 12.3459 C 9.70255 12.3459 9.70443 12.3496 9.70741 12.3565 C 9.71044 12.3635 9.71463 12.3738 9.71923 12.3869 C 9.7292 12.4154 9.73783 12.448 9.74361 12.4824 C 9.74906 12.5147 9.75004 12.5373 9.75018 12.5409 C 9.75024 12.5424 9.75014 12.5406 9.75008 12.5331 C 9.75001 12.5251 9.75 12.5158 9.75 12.5 L 7.75 12.5 Z M 8.22661 11.3736 C 7.90546 11.6914 7.75 12.1306 7.75 12.5 L 9.75 12.5 C 9.75 12.5513 9.74393 12.5883 9.73936 12.6097 C 9.73447 12.6327 9.72844 12.6513 9.72212 12.6669 C 9.71149 12.6932 9.68787 12.7413 9.63339 12.7952 L 8.22661 11.3736 Z M 9.4266 10.1861 L 8.2266 11.3736 L 9.6334 12.7952 L 10.8334 11.6077 L 9.4266 10.1861 Z M 10.55 9.71875 C 10.3447 9.71875 10.129 9.75375 9.9149 9.8479 C 9.70487 9.94028 9.54608 10.0678 9.42661 10.1861 L 10.8334 11.6077 C 10.8339 11.6072 10.7951 11.6457 10.7201 11.6787 C 10.641 11.7134 10.5753 11.7188 10.55 11.7188 L 10.55 9.71875 Z M 17.51 9.71875 L 10.55 9.71875 L 10.55 11.7188 L 17.51 11.7188 L 17.51 9.71875 Z M 21.95 6.75 C 19.5645 6.75 17.4564 8.18296 16.5829 10.344 L 18.4371 11.0935 C 19.0036 9.69204 20.3755 8.75 21.95 8.75 L 21.95 6.75 Z M 27.75 12.5 C 27.75 9.32537 25.1324 6.75 21.95 6.75 L 21.95 8.75 C 24.0476 8.75 25.75 10.4496 25.75 12.5 L 27.75 12.5 Z M 22 11.75 C 22.4394 11.75 22.75 12.0606 22.75 12.5 L 24.75 12.5 C 24.75 10.956 23.544 9.75 22 9.75 L 22 11.75 Z M 21.25 12.5 C 21.25 12.0822 21.5972 11.75 22 11.75 L 22 9.75 C 20.5362 9.75 19.25 10.9345 19.25 12.5 L 21.25 12.5 Z M 22 13.25 C 21.5972 13.25 21.25 12.9178 21.25 12.5 L 19.25 12.5 C 19.25 14.0655 20.5362 15.25 22 15.25 L 22 13.25 Z M 22.75 12.5 C 22.75 12.9394 22.4394 13.25 22 13.25 L 22 15.25 C 23.544 15.25 24.75 14.044 24.75 12.5 L 22.75 12.5 Z" stroke-linecap="round" />
</g>
    <g transform="matrix(1 0 0 1 -39.15 -42.84)" id="VHYWaYtUAwjxisrbY204v" clip-path="url(#CLIPPATH_7397)"  >
<clipPath id="CLIPPATH_7397" >
	<rect transform="matrix(1 0 0 1 -8.35 44.34)" id="clip0" x="-44.5" y="-59.5" rx="0" ry="0" width="89" height="119" />
</clipPath>
        <path style="stroke: none; stroke-width: 1; stroke-dasharray: none; stroke-linecap: butt; stroke-dashoffset: 0; stroke-linejoin: miter; stroke-miterlimit: 4; fill: rgb(44,58,73); fill-rule: nonzero; opacity: 1;" vector-effect="non-scaling-stroke"  transform=" translate(-52.85, -15.16)" d="M 31.2842 17.5879 C 30.833 17.5879 30.4771 17.3652 30.2163 16.9199 C 29.9556 16.4746 29.8252 15.855 29.8252 15.061 C 29.8252 14.2642 29.9526 13.6401 30.2075 13.189 C 30.4624 12.7378 30.814 12.5122 31.2622 12.5122 C 31.4849 12.5122 31.6768 12.5679 31.8379 12.6792 C 32.002 12.7876 32.1528 12.9722 32.2905 13.2329 L 32.3608 13.2329 C 32.3257 12.7876 32.3081 12.4756 32.3081 12.2969 L 32.3081 10.6621 L 33.4771 10.6621 L 33.4771 17.5 L 32.6069 17.5 L 32.4092 16.8628 L 32.3696 16.8628 C 32.1206 17.3462 31.7588 17.5879 31.2842 17.5879 Z M 31.6621 16.5991 C 31.8789 16.5991 32.0371 16.501 32.1367 16.3047 C 32.2363 16.1055 32.2905 15.7451 32.2993 15.2236 L 32.2993 15.0698 C 32.2993 14.5015 32.248 14.1016 32.1455 13.8701 C 32.0459 13.6387 31.8804 13.5229 31.6489 13.5229 C 31.4321 13.5229 31.2739 13.6562 31.1743 13.9229 C 31.0776 14.1865 31.0293 14.5718 31.0293 15.0786 C 31.0293 15.5854 31.0791 15.9663 31.1787 16.2212 C 31.2783 16.4731 31.4395 16.5991 31.6621 16.5991 Z M 36.1738 17.5879 C 35.5615 17.5879 35.0781 17.3711 34.7236 16.9375 C 34.3721 16.501 34.1963 15.8843 34.1963 15.0874 C 34.1963 14.2788 34.356 13.6475 34.6753 13.1934 C 34.9946 12.7393 35.4399 12.5122 36.0112 12.5122 C 36.5444 12.5122 36.9648 12.707 37.2725 13.0967 C 37.5801 13.4834 37.7339 14.0269 37.7339 14.7271 L 37.7339 15.3511 L 35.3828 15.3511 C 35.3916 15.7876 35.481 16.1128 35.6509 16.3267 C 35.8208 16.5376 36.0552 16.6431 36.354 16.6431 C 36.7349 16.6431 37.1245 16.5244 37.5229 16.2871 L 37.5229 17.2495 C 37.1479 17.4751 36.6982 17.5879 36.1738 17.5879 Z M 36.0024 13.4131 C 35.8354 13.4131 35.6978 13.5024 35.5894 13.6812 C 35.481 13.8569 35.418 14.1309 35.4004 14.5029 L 36.5869 14.5029 C 36.5811 14.1455 36.5269 13.8745 36.4243 13.6899 C 36.3218 13.5054 36.1812 13.4131 36.0024 13.4131 Z M 40.5977 17.5879 C 40.3867 17.5879 40.1992 17.541 40.0352 17.4473 C 39.874 17.3506 39.7231 17.1821 39.5825 16.9419 L 39.521 16.9419 C 39.5679 17.3403 39.5913 17.5806 39.5913 17.6626 L 39.5913 19.6621 L 38.4136 19.6621 L 38.4136 12.6045 L 39.3188 12.6045 L 39.521 13.2417 L 39.5737 13.2417 C 39.8169 12.7554 40.1699 12.5122 40.6328 12.5122 C 41.0781 12.5122 41.4268 12.7334 41.6787 13.1758 C 41.9307 13.6152 42.0566 14.2378 42.0566 15.0435 C 42.0566 15.8374 41.9263 16.46 41.6655 16.9111 C 41.4048 17.3623 41.0488 17.5879 40.5977 17.5879 Z M 40.2373 13.5054 C 40.0088 13.5054 39.8433 13.6123 39.7407 13.8262 C 39.6411 14.0371 39.5884 14.3887 39.5825 14.8809 L 39.5825 15.0347 C 39.5825 15.5737 39.6338 15.9663 39.7363 16.2124 C 39.8389 16.4585 40.0088 16.5815 40.2461 16.5815 C 40.6562 16.5815 40.8613 16.063 40.8613 15.0259 C 40.8613 14.5161 40.8101 14.1353 40.7075 13.8833 C 40.6079 13.6313 40.4512 13.5054 40.2373 13.5054 Z M 46.4102 15.0435 C 46.4102 15.8462 46.2402 16.4717 45.9004 16.9199 C 45.5605 17.3652 45.0947 17.5879 44.5029 17.5879 C 44.1279 17.5879 43.7969 17.4854 43.5098 17.2803 C 43.2227 17.0752 43.0015 16.7808 42.8462 16.397 C 42.6909 16.0103 42.6133 15.5591 42.6133 15.0435 C 42.6133 14.2495 42.7817 13.6299 43.1187 13.1846 C 43.4556 12.7363 43.9229 12.5122 44.5205 12.5122 C 45.0977 12.5122 45.5562 12.7407 45.896 13.1978 C 46.2388 13.6519 46.4102 14.2671 46.4102 15.0435 Z M 43.8086 15.0435 C 43.8086 15.5532 43.8643 15.9385 43.9756 16.1992 C 44.0869 16.46 44.2656 16.5903 44.5117 16.5903 C 44.9805 16.5903 45.2148 16.0747 45.2148 15.0435 C 45.2148 14.5308 45.1577 14.1484 45.0435 13.8965 C 44.9321 13.6416 44.7549 13.5142 44.5117 13.5142 C 44.2656 13.5142 44.0869 13.6416 43.9756 13.8965 C 43.8643 14.1484 43.8086 14.5308 43.8086 15.0435 Z M 49.7661 16.0674 C 49.7661 16.5449 49.6255 16.9185 49.3442 17.188 C 49.0659 17.4546 48.6543 17.5879 48.1094 17.5879 C 47.626 17.5879 47.2261 17.4927 46.9097 17.3022 L 46.9097 16.2871 C 47.0708 16.3984 47.2583 16.4907 47.4722 16.564 C 47.689 16.6372 47.8794 16.6738 48.0435 16.6738 C 48.2251 16.6738 48.3628 16.6299 48.4565 16.542 C 48.5532 16.4512 48.6016 16.3325 48.6016 16.186 C 48.6016 16.0366 48.5518 15.9062 48.4521 15.7949 C 48.3525 15.6836 48.1694 15.5474 47.9028 15.3862 C 47.5483 15.1753 47.2935 14.9512 47.1382 14.7139 C 46.9858 14.4736 46.9097 14.1909 46.9097 13.8657 C 46.9097 13.4497 47.0518 13.1201 47.3359 12.877 C 47.623 12.6338 48.0156 12.5122 48.5137 12.5122 C 48.9473 12.5122 49.356 12.6265 49.7397 12.855 L 49.3574 13.6943 C 49.0439 13.5244 48.7686 13.4395 48.5312 13.4395 C 48.3818 13.4395 48.269 13.479 48.1929 13.5581 C 48.1196 13.6372 48.083 13.7339 48.083 13.8481 C 48.083 13.98 48.1284 14.0972 48.2192 14.1997 C 48.313 14.3022 48.4858 14.4297 48.7378 14.582 C 49.0425 14.7666 49.2563 14.9233 49.3794 15.0522 C 49.5024 15.1812 49.5977 15.3276 49.665 15.4917 C 49.7324 15.6558 49.7661 15.8477 49.7661 16.0674 Z M 51.5884 17.5 L 50.4194 17.5 L 50.4194 12.6045 L 51.5884 12.6045 L 51.5884 17.5 Z M 50.3711 11.3257 C 50.3711 11.1323 50.4268 10.98 50.5381 10.8687 C 50.6523 10.7544 50.8105 10.6973 51.0127 10.6973 C 51.2031 10.6973 51.3555 10.7544 51.4697 10.8687 C 51.584 10.98 51.6411 11.1323 51.6411 11.3257 C 51.6411 11.5249 51.5825 11.6802 51.4653 11.7915 C 51.3481 11.8999 51.1973 11.9541 51.0127 11.9541 C 50.8193 11.9541 50.6641 11.8999 50.5469 11.7915 C 50.4297 11.6802 50.3711 11.5249 50.3711 11.3257 Z M 54.1973 16.5991 C 54.3613 16.5991 54.5386 16.5581 54.729 16.4761 L 54.729 17.3901 C 54.5386 17.522 54.2529 17.5879 53.8721 17.5879 C 53.4473 17.5879 53.1323 17.4619 52.9272 17.21 C 52.7222 16.9551 52.6196 16.5742 52.6196 16.0674 L 52.6196 13.5317 L 52.145 13.5317 L 52.145 13.0088 L 52.7559 12.5869 L 53.0547 11.5498 L 53.8018 11.5498 L 53.8018 12.6045 L 54.6895 12.6045 L 54.6895 13.5317 L 53.8018 13.5317 L 53.8018 16.1069 C 53.8018 16.4351 53.9336 16.5991 54.1973 16.5991 Z M 55.312 16.8979 C 55.312 16.6694 55.3721 16.4922 55.4922 16.3662 C 55.6152 16.2402 55.7969 16.1772 56.0371 16.1772 C 56.2773 16.1772 56.459 16.2402 56.582 16.3662 C 56.7051 16.4893 56.7666 16.6665 56.7666 16.8979 C 56.7666 17.1265 56.7021 17.3037 56.5732 17.4297 C 56.4473 17.5557 56.2686 17.6187 56.0371 17.6187 C 55.7998 17.6187 55.6196 17.5557 55.4966 17.4297 C 55.3735 17.3008 55.312 17.1235 55.312 16.8979 Z M 57.7422 16.8979 C 57.7422 16.6694 57.8022 16.4922 57.9224 16.3662 C 58.0454 16.2402 58.2271 16.1772 58.4673 16.1772 C 58.7075 16.1772 58.8892 16.2402 59.0122 16.3662 C 59.1353 16.4893 59.1968 16.6665 59.1968 16.8979 C 59.1968 17.1265 59.1323 17.3037 59.0034 17.4297 C 58.8774 17.5557 58.6987 17.6187 58.4673 17.6187 C 58.23 17.6187 58.0498 17.5557 57.9268 17.4297 C 57.8037 17.3008 57.7422 17.1235 57.7422 16.8979 Z M 60.1724 16.8979 C 60.1724 16.6694 60.2324 16.4922 60.3525 16.3662 C 60.4756 16.2402 60.6572 16.1772 60.8975 16.1772 C 61.1377 16.1772 61.3193 16.2402 61.4424 16.3662 C 61.5654 16.4893 61.627 16.6665 61.627 16.8979 C 61.627 17.1265 61.5625 17.3037 61.4336 17.4297 C 61.3076 17.5557 61.1289 17.6187 60.8975 17.6187 C 60.6602 17.6187 60.48 17.5557 60.3569 17.4297 C 60.2339 17.3008 60.1724 17.1235 60.1724 16.8979 Z M 62.377 19.6621 C 62.1309 19.6621 61.9272 19.6255 61.7661 19.5522 L 61.7661 18.5811 C 61.9009 18.6338 62.0269 18.6602 62.144 18.6602 C 62.4194 18.6602 62.5571 18.4111 62.5571 17.9131 L 62.5571 12.6045 L 63.7261 12.6045 L 63.7261 18.0669 C 63.7261 18.5767 63.6074 18.9692 63.3701 19.2446 C 63.1357 19.5229 62.8047 19.6621 62.377 19.6621 Z M 62.5132 11.3257 C 62.5132 11.1323 62.5688 10.98 62.6802 10.8687 C 62.7944 10.7544 62.9512 10.6973 63.1504 10.6973 C 63.3467 10.6973 63.5005 10.7544 63.6118 10.8687 C 63.7231 10.9829 63.7788 11.1353 63.7788 11.3257 C 63.7788 11.522 63.7217 11.6758 63.6074 11.7871 C 63.4932 11.8984 63.3408 11.9541 63.1504 11.9541 C 62.96 11.9541 62.8062 11.8999 62.689 11.7915 C 62.5718 11.6831 62.5132 11.5278 62.5132 11.3257 Z M 67.2534 16.0674 C 67.2534 16.5449 67.1128 16.9185 66.8315 17.188 C 66.5532 17.4546 66.1416 17.5879 65.5967 17.5879 C 65.1133 17.5879 64.7134 17.4927 64.397 17.3022 L 64.397 16.2871 C 64.5581 16.3984 64.7456 16.4907 64.9595 16.564 C 65.1763 16.6372 65.3667 16.6738 65.5308 16.6738 C 65.7124 16.6738 65.8501 16.6299 65.9438 16.542 C 66.0405 16.4512 66.0889 16.3325 66.0889 16.186 C 66.0889 16.0366 66.0391 15.9062 65.9395 15.7949 C 65.8398 15.6836 65.6567 15.5474 65.3901 15.3862 C 65.0356 15.1753 64.7808 14.9512 64.6255 14.7139 C 64.4731 14.4736 64.397 14.1909 64.397 13.8657 C 64.397 13.4497 64.5391 13.1201 64.8232 12.877 C 65.1104 12.6338 65.5029 12.5122 66.001 12.5122 C 66.4346 12.5122 66.8433 12.6265 67.2271 12.855 L 66.8447 13.6943 C 66.5312 13.5244 66.2559 13.4395 66.0186 13.4395 C 65.8691 13.4395 65.7563 13.479 65.6802 13.5581 C 65.6069 13.6372 65.5703 13.7339 65.5703 13.8481 C 65.5703 13.98 65.6157 14.0972 65.7065 14.1997 C 65.8003 14.3022 65.9731 14.4297 66.2251 14.582 C 66.5298 14.7666 66.7437 14.9233 66.8667 15.0522 C 66.9897 15.1812 67.085 15.3276 67.1523 15.4917 C 67.2197 15.6558 67.2534 15.8477 67.2534 16.0674 Z M 71.5234 15.0435 C 71.5234 15.8462 71.3535 16.4717 71.0137 16.9199 C 70.6738 17.3652 70.208 17.5879 69.6162 17.5879 C 69.2412 17.5879 68.9102 17.4854 68.623 17.2803 C 68.3359 17.0752 68.1147 16.7808 67.9595 16.397 C 67.8042 16.0103 67.7266 15.5591 67.7266 15.0435 C 67.7266 14.2495 67.895 13.6299 68.2319 13.1846 C 68.5688 12.7363 69.0361 12.5122 69.6338 12.5122 C 70.2109 12.5122 70.6694 12.7407 71.0093 13.1978 C 71.3521 13.6519 71.5234 14.2671 71.5234 15.0435 Z M 68.9219 15.0435 C 68.9219 15.5532 68.9775 15.9385 69.0889 16.1992 C 69.2002 16.46 69.3789 16.5903 69.625 16.5903 C 70.0938 16.5903 70.3281 16.0747 70.3281 15.0435 C 70.3281 14.5308 70.271 14.1484 70.1567 13.8965 C 70.0454 13.6416 69.8682 13.5142 69.625 13.5142 C 69.3789 13.5142 69.2002 13.6416 69.0889 13.8965 C 68.9775 14.1484 68.9219 14.5308 68.9219 15.0435 Z M 74.6904 17.5 L 74.6904 14.582 C 74.6904 14.2275 74.6479 13.9595 74.563 13.7778 C 74.478 13.5962 74.3403 13.5054 74.1499 13.5054 C 73.8979 13.5054 73.7134 13.6313 73.5962 13.8833 C 73.479 14.1323 73.4204 14.5542 73.4204 15.1489 L 73.4204 17.5 L 72.2515 17.5 L 72.2515 12.6045 L 73.1787 12.6045 L 73.3193 13.2329 L 73.394 13.2329 C 73.4995 13.0073 73.6504 12.8315 73.8467 12.7056 C 74.043 12.5767 74.2729 12.5122 74.5366 12.5122 C 74.9819 12.5122 75.3145 12.6646 75.5342 12.9692 C 75.7568 13.2739 75.8682 13.7192 75.8682 14.3052 L 75.8682 17.5 L 74.6904 17.5 Z" stroke-linecap="round" />
</g>
</g>
</g>
</svg>
